<?xml version="1.0" encoding="utf-8"?>
<!-- Generator: Adobe Illustrator 16.0.0, SVG Export Plug-In . SVG Version: 6.00 Build 0)  -->
<!DOCTYPE svg PUBLIC "-//W3C//DTD SVG 1.1//EN" "http://www.w3.org/Graphics/SVG/1.1/DTD/svg11.dtd">
<svg version="1.1" id="图层_1" xmlns="http://www.w3.org/2000/svg" xmlns:xlink="http://www.w3.org/1999/xlink" x="0px" y="0px"
	 width="600px" height="600px" viewBox="0 0 600 600" enable-background="new 0 0 600 600" xml:space="preserve">
<path id="L3" fill="#ECF0F1" d="M443.1,452.1c-0.6-0.3-1.1-0.8-1.4-1.4c-0.3-0.6-0.3-1.1-0.1-1.4c0.1-0.3,0.4-0.2,0.9,0
	c0.6,0.3,1.4,0.8,2.1,0.8c0.7,0,1.3-0.6,1.8-0.7c0.6-0.1,1.1,0.1,1.7,0.1c0.6,0,1.1-0.3,1.7-0.4c0.6-0.1,1.1-0.1,1.4,0
	s0.3,0.4,0.6,1s0.8,1.4,0.8,1.8c0,0.4-0.6,0.4-0.8,0.7s-0.3,0.8-0.7,1.5c-0.4,0.7-1.3,1.5-1.5,2.1s0,0.8,0.4,1.4
	c0.4,0.6,1,1.4,1.1,1.8c0.1,0.4-0.1,0.4-0.7,0.3c-0.6-0.1-1.4-0.4-2.1-0.8c-0.7-0.4-1.3-1-1.4-1.5c-0.1-0.6,0.1-1.1-0.3-1.1
	c-0.4,0-1.5,0.6-2.2,0.7c-0.7,0.1-1-0.1-0.8-1c0.1-0.8,0.7-2.2,0.7-2.9S443.6,452.3,443.1,452.1z"/>
<path id="L2" fill="#ECF0F1" d="M462.1,552.8c-0.1-0.1-0.4-0.1-0.7,0c-0.3,0.1-0.6,0.4-1,0.6c-0.4,0.1-1,0.1-1.5,0
	c-0.6-0.1-1.1-0.4-1.8-0.6c-0.7-0.1-1.5-0.1-2.4,0c-0.8,0.1-1.7,0.4-2.2,0.4c-0.6,0-0.8-0.3-1-0.6c-0.1-0.3-0.1-0.6-0.3-0.7
	c-0.1-0.1-0.4-0.1-0.7,0c-0.3,0.1-0.6,0.4-0.7,0.7c-0.1,0.3-0.1,0.6,0,0.7c0.1,0.1,0.4,0.1,0.6,0.3c0.1,0.1,0.1,0.4,0.3,0.7
	c0.1,0.3,0.4,0.6,0.6,1.3c0.1,0.7,0.1,1.8,0,2.6c-0.1,0.8-0.4,1.4-0.4,1.7s0.3,0.3,0.7,0.3c0.4,0,1,0,1.4,0.1c0.4,0.1,0.7,0.4,1,1
	c0.3,0.6,0.6,1.4,1,1.9c0.4,0.6,1,0.8,1.9,0.8c1,0,2.4-0.3,3.1-0.3s0.7,0.3,0.7,0.7s0,1,0.4,1.4c0.4,0.4,1.3,0.7,1.5,1.1
	c0.3,0.4,0,1,0,1.4c0,0.4,0.3,0.7,0.7,0.8c0.4,0.1,1,0.1,1.4,0.3c0.4,0.1,0.7,0.4,1,0.4c0.3,0,0.6-0.3,0.8-0.8
	c0.3-0.6,0.6-1.4,0.6-1.9s-0.3-0.8-0.3-1.1s0.3-0.6,0.6-0.8c0.3-0.3,0.6-0.6,0.4-0.7c-0.1-0.1-0.7-0.1-1.3-0.3
	c-0.6-0.1-1.1-0.4-1.5-0.8c-0.4-0.4-0.7-1-1-1.1c-0.3-0.1-0.6,0.1-1.1,0c-0.6-0.1-1.4-0.7-1.7-1.1c-0.3-0.4,0-0.7,0-1
	s-0.3-0.6-0.4-0.8c-0.1-0.3-0.1-0.6,0.1-0.8c0.3-0.3,0.8-0.6,1.3-0.6c0.4,0,0.7,0.3,0.8,0.3c0.1,0,0.1-0.3,0.1-0.6s0-0.6-0.1-0.7
	c-0.1-0.1-0.4-0.1-0.7-0.4s-0.6-0.8-0.6-1.3c0-0.4,0.3-0.7,0.4-1c0.1-0.3,0.1-0.6,0.1-0.8C462.3,553.2,462.3,552.9,462.1,552.8z"/>
<g id="L1">
	<path fill="#ECF0F1" d="M95.7,322.8c0.3-0.6,0.8-0.3,1.5-0.6c0.7-0.3,1.5-1.1,2.2-1.5c0.7-0.4,1.3-0.4,1.5-0.3
		c0.3,0.1,0.3,0.4,0.4,1c0.1,0.6,0.4,1.4,0.4,1.7s-0.3,0-0.8-0.1c-0.6-0.1-1.4-0.1-2.4,0.4c-1,0.6-2.1,1.7-2.6,1.5
		C95.5,324.8,95.5,323.4,95.7,322.8z"/>
	<path fill="#ECF0F1" d="M97.7,318.7c0-0.3-0.3-0.6-0.4-0.6s-0.1,0.3-0.3,0.3s-0.4-0.3-0.7-0.3c-0.3,0-0.6,0.3-0.7,0.6
		c-0.1,0.3-0.1,0.6,0,0.7c0.1,0.1,0.4,0.1,0.7,0.3c0.3,0.1,0.6,0.4,0.8,0.6c0.3,0.1,0.6,0.1,0.7,0c0.1-0.1,0.1-0.4,0-0.6
		c-0.1-0.1-0.4-0.1-0.4-0.3C97.4,319.2,97.7,318.9,97.7,318.7z"/>
	<path fill="#ECF0F1" d="M98.8,346.9c0-0.4,0-1,0.1-1.1c0.1-0.1,0.4,0.1,0.6,0c0.1-0.1,0.1-0.7,0.3-1c0.1-0.3,0.4-0.3,0.6-0.1
		c0.1,0.1,0.1,0.4,0.3,0.6c0.1,0.1,0.4,0.1,0.8,0.3c0.4,0.1,1,0.4,1.3,0.7c0.3,0.3,0.3,0.6,0.1,0.7c-0.1,0.1-0.4,0.1-0.7,0
		c-0.3-0.1-0.6-0.4-0.8-0.6c-0.3-0.1-0.6-0.1-0.7,0c-0.1,0.1-0.1,0.4-0.3,0.6c-0.1,0.1-0.4,0.1-0.6,0.3c-0.1,0.1-0.1,0.4-0.1,0.7
		c0,0.3,0,0.6-0.1,0.6s-0.4-0.3-0.6-0.6C98.8,347.6,98.8,347.3,98.8,346.9z"/>
	<path fill="#ECF0F1" d="M96,341.5c-0.3,0-0.8,0.3-1.1,0.3c-0.3,0-0.3-0.3-0.6-0.4c-0.3-0.1-0.8-0.1-1,0.1s0.1,0.8,0.3,1.8
		c0.1,1,0.1,2.4,0,3.1c-0.1,0.7-0.4,0.7-0.8,1.1c-0.4,0.4-1,1.3-1,1.7c0,0.4,0.6,0.4,1,0.3c0.4-0.1,0.7-0.4,1.1-0.7
		c0.4-0.3,1-0.6,1.3-0.6c0.3,0,0.3,0.3,0.4,0.6s0.4,0.6,0.7,0.6c0.3,0,0.6-0.3,0.6-0.6s-0.3-0.6-0.4-1c-0.1-0.4-0.1-1,0-1.3
		c0.1-0.3,0.4-0.3,0.6-0.6c0.1-0.3,0.1-0.8,0-1.4s-0.4-1.1-0.6-1.5c-0.1-0.4-0.1-0.7-0.1-1S96.3,341.5,96,341.5z"/>
	<path fill="#ECF0F1" d="M108.6,273c-0.3,0.6,0,1.4,0.3,1.9c0.3,0.6,0.6,0.8,1.1,0.6c0.6-0.3,1.4-1.1,1.9-1.5
		c0.6-0.4,0.8-0.4,1.1-0.7c0.3-0.3,0.6-0.8,0.6-1.3s-0.3-0.7-0.7-1.1c-0.4-0.4-1-1-1.4-0.8c-0.4,0.1-0.7,1-1.3,1.5
		S108.8,272.4,108.6,273z"/>
	<path fill="#ECF0F1" d="M113.7,300.1c-0.4-0.1-1-0.4-1.3-0.4c-0.3,0-0.3,0.3-0.4,0.4c-0.1,0.1-0.4,0.1-0.6,0.3
		c-0.1,0.1-0.1,0.4,0,0.7c0.1,0.3,0.4,0.6,0.4,1c0,0.4-0.3,1-0.6,1.7c-0.3,0.7-0.6,1.5-0.8,1.9c-0.3,0.4-0.6,0.4-0.7,0.3
		c-0.1-0.1-0.1-0.4-0.3-0.6c-0.1-0.1-0.4-0.1-0.6-0.4c-0.1-0.3-0.1-0.8-0.1-1.4c0-0.6,0-1.1-0.1-1.4c-0.1-0.3-0.4-0.3-0.8,0.1
		c-0.4,0.4-1,1.3-1.7,1.7c-0.7,0.4-1.5,0.4-1.8,0.6c-0.3,0.1,0,0.4,0,0.8c0,0.4-0.3,1-0.6,1.5c-0.3,0.6-0.6,1.1-0.4,1.4
		c0.1,0.3,0.7,0.3,1.3-0.1c0.6-0.4,1.1-1.3,1.5-1.4c0.4-0.1,0.7,0.4,1.1,0.8c0.4,0.4,1,0.7,1.1,0.8s-0.1,0.1-0.3,0.4
		c-0.1,0.3-0.1,0.8,0,1.1s0.4,0.3,1,0.3s1.4,0,1.9,0.1c0.6,0.1,0.8,0.4,0.7,0.7s-0.7,0.6-1,1c-0.3,0.4-0.3,1-0.4,1.4
		c-0.1,0.4-0.4,0.7-1,0.8c-0.6,0.1-1.4,0.1-2.2,0c-0.8-0.1-1.7-0.4-2.2-0.4c-0.6,0-0.8,0.3-1.1,0.3s-0.6-0.3-0.7-0.6
		c-0.1-0.3-0.1-0.6-0.3-0.8c-0.1-0.3-0.4-0.6-0.4-0.8s0.3-0.6,0.6-0.7c0.3-0.1,0.6-0.1,0.7-0.3c0.1-0.1,0.1-0.4-0.1-0.6
		c-0.3-0.1-0.8-0.1-1.4-0.3c-0.6-0.1-1.1-0.4-1.4-0.4s-0.3,0.3-0.1,0.6c0.1,0.3,0.4,0.6,0.6,0.8c0.1,0.3,0.1,0.6,0,1.1
		c-0.1,0.6-0.4,1.4-0.3,1.8c0.1,0.4,0.7,0.4,1.1,0.6c0.4,0.1,0.7,0.4,1,0.7c0.3,0.3,0.6,0.6,0.8,0.6s0.6-0.3,0.8-0.4
		c0.3-0.1,0.6-0.1,0.8,0s0.6,0.4,0.8,0.8c0.3,0.4,0.6,1,0.6,1.5s-0.3,1.1-0.3,1.4s0.3,0.3,0.6,0.1c0.3-0.1,0.6-0.4,1.3-0.6
		c0.7-0.1,1.8-0.1,2.6-0.3c0.8-0.1,1.4-0.4,1.8-0.7c0.4-0.3,0.7-0.6,0.8-1c0.1-0.4,0.1-1,0-1.4c-0.1-0.4-0.4-0.7-0.6-1
		c-0.1-0.3-0.1-0.6,0.1-0.8c0.3-0.3,0.8-0.6,1.5-1c0.7-0.4,1.5-1,2.1-1.8c0.6-0.8,0.8-1.9,1.3-2.6c0.4-0.7,1-1,1.3-1
		c0.3,0,0.3,0.3,0.7,0.4c0.4,0.1,1.3,0.1,1.9,0.1c0.7,0,1.3,0,1.7,0.1c0.4,0.1,0.7,0.4,0.8,0.8c0.1,0.4,0.1,1,0.3,1.3
		s0.4,0.3,1.1-0.1c0.7-0.4,1.8-1.3,2.2-1.7c0.4-0.4,0.1-0.4-0.1-0.6c-0.3-0.1-0.6-0.4-1.1-0.6c-0.6-0.1-1.4-0.1-1.8-0.6
		c-0.4-0.4-0.4-1.3-0.4-2c0-0.7,0-1.3,0.1-1.7s0.4-0.7,0.3-1.1c-0.1-0.4-0.7-1-1.3-1.5c-0.6-0.6-1.1-1.1-1.4-1.1
		c-0.3,0-0.3,0.6-0.6,0.8c-0.3,0.3-0.8,0.3-1.1,0c-0.3-0.3-0.3-0.8-0.4-1.1c-0.1-0.3-0.4-0.3-0.6,0c-0.1,0.3-0.1,0.8-0.4,1.3
		c-0.3,0.4-0.8,0.7-1.1,1.3c-0.3,0.6-0.3,1.4-0.4,1.5c-0.1,0.1-0.4-0.4-0.7-0.6c-0.3-0.1-0.6,0.1-0.8,0.7c-0.3,0.6-0.6,1.4-0.8,1.7
		s-0.6,0-0.6-0.3s0.3-0.6,0.4-1c0.1-0.4,0.1-1,0.1-1.5c0-0.6,0-1.1,0.1-1.4c0.1-0.3,0.4-0.3,0.6-0.4c0.1-0.1,0.1-0.4,0-0.7
		s-0.4-0.6-0.7-0.7s-0.6-0.1-0.7,0s-0.1,0.4-0.1,0.7s0,0.6-0.1,0.7C114.4,300.3,114.1,300.3,113.7,300.1z"/>
	<path fill="#ECF0F1" d="M99.5,294.4c0.1-0.3,0.1-0.6-0.1-0.7c-0.3-0.1-0.8-0.1-1.4-0.1c-0.6,0-1.1,0-1.7-0.1
		c-0.6-0.1-1.1-0.4-1.5-0.4c-0.4,0-0.7,0.3-1,0.7c-0.3,0.4-0.6,1-0.8,1.7c-0.3,0.7-0.6,1.5-0.4,2.1c0.1,0.6,0.7,0.8,1,1.3
		c0.3,0.4,0.3,1,0.1,1.5c-0.1,0.6-0.4,1.1-0.7,1.3c-0.3,0.1-0.6-0.1-0.8-0.4c-0.3-0.3-0.6-0.6-0.7-0.6s-0.1,0.3,0,0.7
		c0.1,0.4,0.4,1,0.8,1.4c0.4,0.4,1,0.7,1.3,1c0.3,0.3,0.3,0.6,0.1,0.7c-0.1,0.1-0.4,0.1-0.6,0.6c-0.1,0.4-0.1,1.3-0.3,1.7
		c-0.1,0.4-0.4,0.4-0.7,0.3c-0.3-0.1-0.6-0.4-0.8-0.6c-0.3-0.1-0.6-0.1-0.8,0.1s-0.6,0.8-1,1.3c-0.4,0.4-1,0.7-1.3,0.7
		c-0.3,0-0.3-0.3-0.4-0.3s-0.4,0.3-0.6,0.6c-0.1,0.3-0.1,0.6,0,0.8c0.1,0.3,0.4,0.6,0.7,0.6s0.6-0.3,0.8-0.6c0.3-0.3,0.6-0.6,1-0.8
		c0.4-0.3,1-0.6,1.5-0.7c0.6-0.1,1.1-0.1,1.7,0c0.6,0.1,1.1,0.4,1.5,0.7c0.4,0.3,0.7,0.6,1,0.6c0.3,0,0.6-0.3,0.7-0.7
		c0.1-0.4,0.1-1,0-1.3c-0.1-0.3-0.4-0.3-0.6-0.4c-0.1-0.1-0.1-0.4,0-0.8c0.1-0.4,0.4-1,0.6-1.7s0.1-1.5,0.3-1.9
		c0.1-0.4,0.4-0.4,0.6-0.6s0.1-0.4,0.3-1.1c0.1-0.7,0.4-1.8,0.3-2.6c-0.1-0.8-0.7-1.4-0.8-1.8c-0.1-0.4,0.1-0.7,0.4-0.8
		c0.3-0.1,0.6-0.1,0.8-0.1s0.6,0,0.8-0.1C99.1,295,99.4,294.7,99.5,294.4z"/>
	<path fill="#ECF0F1" d="M102.9,291.5c-0.4-0.1-1-0.7-1.3-1.3s-0.3-1.1-0.3-1.5s0-0.7,0.1-0.8c0.1-0.1,0.4-0.1,0.8-0.1
		c0.4,0,1,0,1.5-0.1c0.6-0.1,1.1-0.4,1.7-0.7c0.6-0.3,1.1-0.6,1.7-0.7c0.6-0.1,1.1-0.1,1.8-0.1s1.5,0,1.9,0.3s0.4,0.8,0.3,1.3
		s-0.4,0.7-0.3,1.1s0.7,1,0.8,1.4c0.1,0.4-0.1,0.7-0.4,0.8c-0.3,0.1-0.6,0.1-0.7,0.7c-0.1,0.6-0.1,1.7,0.3,2.2
		c0.4,0.6,1.3,0.6,1.4,0.7c0.1,0.1-0.4,0.4-1,0.8c-0.6,0.4-1.1,1-1.4,1.1c-0.3,0.1-0.3-0.1-0.6-0.4c-0.3-0.3-0.8-0.6-1-0.8
		s0.1-0.6,0.3-1c0.1-0.4,0.1-1-0.1-1.4c-0.3-0.4-0.8-0.7-1.1-1.4c-0.3-0.7-0.3-1.8-0.6-2.2c-0.3-0.4-0.8-0.1-1.3,0.1
		c-0.4,0.3-0.7,0.6-1.1,0.7c-0.4,0.1-1,0.1-1.1,0.3c-0.1,0.1,0.1,0.4,0.1,0.7C103.5,291.4,103.3,291.6,102.9,291.5z"/>
	<path fill="#ECF0F1" d="M80.7,375.8c0.3-0.3,0.8-0.3,1.4-0.6c0.6-0.3,1.1-0.8,1.7-0.8c0.6,0,1.1,0.6,1.7,0.8
		c0.6,0.3,1.1,0.3,1.7,0.3s1.1,0,1.1,0.3c0,0.3-0.6,0.8-0.8,1.4c-0.3,0.6-0.3,1.1-0.6,1.4c-0.3,0.3-0.8,0.3-1.1,0.6
		c-0.3,0.3-0.3,0.8-0.6,1.1s-0.8,0.3-1.1,0.6s-0.3,0.8-0.6,0.8c-0.3,0-0.8-0.6-0.8-1.1s0.6-1.1,0.8-1.7c0.3-0.6,0.3-1.1,0-1.4
		c-0.3-0.3-0.8-0.3-1.4-0.3c-0.6,0-1.1,0-1.4-0.3S80.4,376,80.7,375.8z"/>
</g>
<path id="NT" fill="#ECF0F1" d="M298.5,271.9c0,0.7-0.3,1.2-0.6,1.7c-0.1,0.2-0.3,0.5-0.4,0.7c-0.2,0.6-0.2,1.7-0.2,2.9
	c0,1.5,0,3.2-0.3,4.5c-0.2,0.7-0.4,1.2-0.7,1.7c-0.2,0.4-0.4,0.7-0.5,1.1c-0.2,1-0.2,2.6-0.2,4.1v4.3c0.9-0.2,2.3,0.1,3.7,0.4
	c0.6,0.1,1.2,0.3,1.9,0.4c1.7,0.3,3.1,0.2,4.4-0.2c0.7-0.2,1.4-0.6,2-0.9c1-0.5,1.9-0.9,2.9-1.1c1.6-0.3,2.8,0.2,3.7,0.5l0.4,0.1
	c0.3,0.1,0.5,0.1,0.7,0.2c0.5,0.1,1,0.2,1.5,0.7c0.4,0.4,0.6,0.9,0.7,1.3c0,0.1,0.1,0.3,0.2,0.5c0.1,0.1,0.3,0.5,1.5,1
	c0.8,0.3,1.9,0.6,3,1c0.8,0.2,1.5,0.5,2.2,0.7c2,0.7,3.2,1.3,4.2,2.3c1,1,1.7,2.3,2,3.7c0.3,1.4,0.3,2.7,0,3.8
	c-0.1,0.3-0.3,0.7-0.4,0.9c0,0,0,0.1-0.1,0.1c0.1,0.1,0.3,0.2,0.5,0.4c0.5,0.4,1.2,0.9,1.9,1.6c1,1,2.2,2.4,3.2,3.8
	c0.4,0.6,0.9,1.1,1.3,1.6c1.3,1.6,2.2,2.4,3.3,2.6c0.8,0.1,2,0,3-0.1c0.8-0.1,1.6-0.2,2.3-0.2c1.3,0,2.3,0.3,3.2,0.6l0.3,0.1l0,0
	c0.3,0.1,0.6,0.2,0.9,0.2c1.3,0.3,2.8,0.3,5.7,0.3h11.7c0.2-0.4,0.6-0.8,1-1.3l0.5-0.7c0.7-0.9,2.6-3.3,3.8-5.4c0.6-1,1-1.9,1.3-2.7
	c0.3-0.8,0.6-1.4,0.9-1.9c0.8-1.2,1.8-1.4,3.2-1.6l0.5-0.1c0.8-0.1,1.9-0.3,3-0.6c1.1-0.2,2.2-0.4,3.1-0.6l0.5-0.1
	c0.4-0.1,0.8-0.1,1-0.2c0.2-0.7,0.2-2.3,0.2-3.4c0-1.5,0-3.1,1.5-4.6c1.2-1.2,3.6-2.4,5.2-3.1l0.3-0.1c0.9-0.3,1.1-0.4,1.7-2.8
	c0.5-1.9,1.1-5,1.6-8c0.4-2.1,0.8-4.2,1.1-5.8c0.4-2,0.8-3.3,1-4.2c0.2-0.7,0.3-1.1,0.3-1.3c0-0.3-0.4-0.6-1-1.3
	c-0.8-0.8-1.9-1.9-2.9-2.7c-0.5-0.3-0.9-0.6-1.3-0.9c-0.6-0.4-1.2-0.8-1.6-1.2c-1.5-1.5-0.5-3.3,0.1-4.2c0.5-0.9,1.4-2.1,2.2-3.2
	c0.5-0.7,1.1-1.5,1.5-2.2c1.1-1.6,1.6-2.6,2.1-3.8c0.5-1.1,1.1-2.2,1.6-3.5c0.6-1.5,1.1-3.2,1.6-5.1c0.4-1.6,1.1-4.6,1.1-6.6
	c0-1.6-0.4-2.4-0.9-3.1c-0.5-0.7-1-1.2-1.5-1.7c-0.6-0.6-1.4-1.4-1.7-2.5c-0.5-1.5-0.1-3.1,1.2-5.6c1.4-2.6,4.2-6.5,6.2-9.1
	c0.5-0.6,1-1.2,1.3-1.7c1-1.2,1.6-2,1.7-2.5c0.1-0.5-0.1-1.1-0.3-1.8c-0.1-0.3-0.2-0.6-0.3-0.9c-0.3-1.2-0.3-2.3-0.1-3.5
	c-0.6-0.4-1.3-0.5-2.5-0.5h-7c-2.9,0-6.2,0-8-0.3c-2.2-0.4-2.6-1.3-3-2.4l-0.1-0.2c-0.2-0.6-0.6-1.6-2.2-3.4
	c-1.6-1.9-4.3-4.6-5.8-5.6c-0.8-0.5-0.8-0.5-1.6,0.1l-0.2,0.1c-1.1,0.9-2.9,2-4.3,2.9c-1.7,1-2.8,1.5-4,1.8
	c-0.4,0.1-0.8,0.2-1.1,0.2c-0.6,0.1-1.2,0.2-1.5,0.4c-0.4,0.3-0.9,1-1.1,1.8c-0.1,0.3-0.1,0.5-0.2,0.7c-0.1,0.5-0.2,1-0.7,1.5
	c-0.5,0.5-1.1,0.6-1.7,0.7c-0.2,0-0.5,0.1-0.9,0.2c-1.4,0.4-2.7,0.9-3.4,1.4c-0.5,0.3-0.8,0.8-1.2,1.2c-0.4,0.5-0.8,0.9-1.3,1.2
	c-1.4,0.7-2.6-0.5-3.3-1.1c-0.2-0.2-0.5-0.5-0.7-0.6c-0.2,0.1-0.4,0.4-0.9,1l-0.5,0.7c-0.9,1.2-1.7,2.4-2.6,3
	c-1.3,0.8-2.3,0.4-3,0.1c-0.1-0.1-0.3-0.1-0.4-0.2c-0.3-0.1-0.8-0.2-1.3-0.2c-0.5-0.1-1.1-0.1-1.7-0.3c-0.5-0.1-1.1-0.3-1.6-0.5
	c-0.2-0.1-0.4-0.1-0.5-0.2c-0.1,0.2-0.3,0.4-0.5,0.6c-0.2,0.2-0.5,0.5-0.9,0.7c-0.5,0.4-1,0.8-1.5,1.3c-0.4,0.5-0.8,1.3-1.1,2
	c-0.3,0.6-0.5,1.1-0.8,1.6c-0.8,1.2-1.7,1.3-2.1,1.3c-0.7,0-1.3-0.5-1.6-1.1c-0.2-0.5-0.3-1-0.4-1.5c0-0.2-0.1-0.4-0.1-0.5
	c-0.2,0-0.5,0-0.8,0h-3.9c-0.4,0-0.8,0-0.9,0.1c0,0,0,0-0.1,0.2c-0.2,0.3-0.4,0.7-0.6,1.2c-0.4,0.8-0.8,1.7-1.4,2.5
	c-0.4,0.5-0.8,0.9-1.2,1.3c-0.5,0.5-0.9,0.9-1.2,1.5c-0.3,0.7-0.4,1.9-0.5,2.9c-0.1,0.7-0.1,1.4-0.3,1.9c-0.4,1.8-1.1,2.6-1.8,3.2
	c-0.5,0.5-0.9,0.9-1.1,1.4c-0.1,0.3-0.2,0.7-0.2,1c-0.1,0.6-0.2,1.2-0.4,1.6c-0.4,0.8-1.1,1.2-2,1.2c-0.4,0-0.9-0.1-1.3-0.3
	c-0.2-0.1-0.3-0.2-0.5-0.3c-0.4-0.2-0.6-0.4-1.1-0.4c-0.3,0-0.9,0.1-1.4,0.2c-1,0.2-2.2,0.4-3.6,0.4c-2.3,0-5.3-0.6-7.7-1.5
	c-1.6-0.6-2.9-1.3-4.1-2c-0.5-0.3-1.1-0.6-1.6-0.8c-0.5-0.2-1-0.5-1.4-0.7c-0.5-0.2-1-0.5-1.5-0.7c-0.5,0.3-1,0.6-1.5,0.7
	c-0.8,0.3-1.7,0.4-2.5,0.5c-0.3,0-0.5,0.1-0.8,0.1c0,0,0,0,0,0.1c0.3,0.4,0.6,0.9,0.9,1.7c0.2,0.6,0.3,1.3,0.4,2.1
	c0.1,0.5,0.1,1.1,0.2,1.7c0.3,1.7,0.8,3.8,1.3,5c0.2,0.5,0.4,0.8,0.6,1.2c0.3,0.7,0.7,1.3,0.9,2.4c0.3,1.5,0.3,3.9,0,6.5
	c-0.1,1-0.3,2-0.4,2.9c-0.2,1.5-0.4,2.9-0.4,3.9c0,1.1,0.2,1.2,0.9,1.6c0.3,0.1,0.6,0.3,1,0.4c1,0.5,2.2,1,3,1.8
	c0.7,0.7,1,1.5,1.2,2.2c0.1,0.3,0.2,0.6,0.3,0.8c0.3,0.5,1,0.8,1.6,0.8c0.6,0,1.3-0.3,1.9-0.5c0.2-0.1,0.5-0.2,0.7-0.3
	c0.5-0.2,2.1-0.7,3.1,0.3c0.7,0.7,0.7,1.6,0.7,2.6c0,0.9,0,2.2-0.3,3.2c-0.4,1.1-1.1,2-2.1,2.5c-0.8,0.4-1.6,0.4-2.8,0.4
	c-0.3,0-0.7,0-1.1,0.1C298.1,270.5,298.5,271.1,298.5,271.9z"/>
<path id="YL_1_" fill="#ECF0F1" d="M484.3,166c0.2-0.6,0.5-1.2,0.8-1.9c0.8-1.9,1.9-4.7,3.6-7.5c1.7-2.8,3.9-5.6,5-8.1
	c1.1-2.5,1.1-4.7,1.7-6.4c0.6-1.7,1.7-2.8,2.2-4.7c0.6-1.9,0.6-4.7,1.4-7.2c0.8-2.5,2.5-4.7,3.3-6.1c0.8-1.4,0.8-2,0.6-2.2
	s-0.8-0.3-2.5-1.9c-1.7-1.7-4.5-5-6.1-7c-1.7-1.9-2.2-2.5-2.5-3.1c-0.3-0.6-0.3-1.1-0.6-2.8c-0.3-1.7-0.8-4.5-1.1-7.2
	s-0.3-5.6-0.6-7.2c-0.3-1.7-0.8-2.2-0.6-3.6c0.3-1.4,1.4-3.6,2.2-5.6c0.8-2,1.4-3.6,2.2-5.8c0.8-2.2,1.9-5,3.9-8.1s4.7-6.4,6.7-8.6
	c0.4-0.4,0.7-0.8,1.1-1.2c0.1-0.1,0.2-0.2,0.2-0.3c0.1-0.1,0.2-0.2,0.3-0.3c0.1-0.1,0.2-0.2,0.3-0.3c0.1-0.1,0.1-0.1,0.2-0.2
	c0.1-0.1,0.2-0.2,0.3-0.3c0.1-0.1,0.1-0.1,0.2-0.2c0,0,0,0,0,0c-2.1-0.3-3.3-0.2-4.2-0.1c-1.6,0.2-2.6,0.7-4.7,1.8
	c-2.2,1.1-5.5,2.7-7.3,4.1c-1.7,1.2-2.1,2.1-2.6,3.1c-0.6,1.2-1.3,2.5-2.6,3.5c-1.3,0.9-3.4,1.8-5.1,1.3c-0.6-0.2-1.1-0.5-1.5-0.7
	c-0.1,0.2-0.2,0.4-0.3,0.6c-0.3,0.6-0.6,1.2-0.9,1.7c-1,1.6-2.2,2.8-7.1,6c-3,1.9-7.4,4.7-11.4,7.1c-2.3,1.4-4.5,2.8-6.2,3.8
	c-4.4,2.7-4.4,3-4.4,3.8c0,0.6,0.1,1.3,0.2,2.1c0.1,1.5,0.3,3,0.1,4.2c-0.4,2.4-2.1,3.2-3.8,4.1c-1.7,0.8-4,2-6.8,3.1
	c-1.3,0.5-2.8,1.1-4.1,1.6c-1.5,0.5-2.9,1.1-3.9,1.5c-0.3,0.1-0.6,0.2-0.8,0.4c-0.6,0.3-1.1,0.5-1.6,0.6c-0.8,1.3-1.6,2.5-2.3,3.6
	c-0.6,1-1.3,1.9-1.8,2.7c-1.5,2.5-1.9,4-2.2,5.7c0,0.3-0.1,0.6-0.1,1c-0.1,1.1-0.3,2.4-0.7,3.6c0.7,1.6,0.3,3-0.1,4
	c-0.7,1.8-2.2,3.8-3.3,5.1c-0.5,0.6-1.1,1.3-1.7,1.9c-1,1.1-2.1,2.3-3.3,3.9c-0.8,1-1.7,2.2-2.5,3.4c-1.2,1.7-2.4,3.3-3.4,4.5
	c-0.2,0.3-0.5,0.5-0.7,0.8c0.9,1.5,1.7,2.8,2.4,3.9l1.2,2c0.6,1.1,1.1,1.8,1.5,2.1c0.5,0.3,1.4,0.3,2.6,0.3c1.3,0,2.9,0,4.2-0.3
	c0.5-0.1,0.9-0.2,1.3-0.3c0.9-0.3,1.8-0.5,2.9-0.5c1.5,0,3.3,0.5,5.4,1.5c0.5,0.2,1,0.5,1.5,0.8c1.1,0.6,2.3,1.3,3.6,1.6
	c1.1,0.3,2.3,0.4,3.4,0.5c0.7,0.1,1.4,0.1,2,0.3c1.2,0.2,1.9,0.7,2.6,1.1c0.2,0.1,0.5,0.3,0.8,0.4c1.1,0.5,2.8,1.1,5,1.6
	c2.4,0.5,5.7,1.1,7.5,1.1c1.3,0,1.6-0.2,2.5-0.9l0.3-0.2c0.6-0.4,1.3-0.9,2-1.4c0.7-0.5,1.4-1,1.9-1.4c0.2-0.2,0.4-0.3,0.6-0.5
	c0.8-0.7,1.5-1.2,2.4-1.2c0.9,0,1.5,0.5,2.1,0.9c0.2,0.1,0.4,0.3,0.6,0.4c0.7,0.4,1.5,0.9,2.9,0.9c0.6,0,1.3-0.1,2.1-0.2
	c1.3-0.2,2.7-0.3,4.2-0.2c1.5,0.1,3,0.4,5.7,1c1,0.2,2.1,0.5,3.5,0.8L484.3,166z"/>
<path id="HL" fill="#ECF0F1" d="M483.6,168.7c-1.4-0.3-2.5-0.5-3.5-0.8c-2.6-0.6-4-0.9-5.2-1c-1.3-0.1-2.5,0.1-3.7,0.2
	c-0.9,0.1-1.7,0.2-2.5,0.2c-2.1,0-3.5-0.8-4.4-1.3c-0.2-0.2-0.5-0.3-0.7-0.5c-0.2-0.1-0.4-0.3-0.5-0.4c-0.2,0.1-0.5,0.3-0.7,0.5
	c-0.2,0.2-0.4,0.3-0.7,0.5c-0.6,0.4-1.3,0.9-2,1.4c-0.7,0.5-1.4,1-1.9,1.4l-0.3,0.2c-1,0.8-1.9,1.5-4.2,1.5c-2.2,0-5.7-0.6-8.1-1.1
	c-2.5-0.5-4.3-1.1-5.6-1.8c-0.4-0.2-0.7-0.4-1-0.5c-0.6-0.4-1-0.6-1.8-0.7c-0.5-0.1-1.1-0.2-1.8-0.2c-1.2-0.1-2.6-0.3-3.9-0.6
	c-1.5-0.4-2.9-1.2-4.2-1.9c0,0-0.1,0-0.1,0c-4.5,5.5-6.9,8.5-8.9,10.6c-1.7,1.8-3,2.9-4,3.7c-0.4,0.4-0.8,0.6-1,0.9
	c-0.4,0.4-0.4,0.5-0.4,1.8c0,1.3,0,3.5,0.3,5.4c0.3,1.8,0.8,3.3,1.8,5.4c0.5,0.9,1,1.9,1.5,2.9c0.8,1.4,1.5,2.7,1.8,3.6
	c0.2,0.5,0.6,1.5,0,2.4c-0.6,0.9-1.5,0.9-2.4,0.9c-0.9,0-2.5,0-3.3,0.4c-0.6,0.3-1,0.9-1.2,1.9c-0.2,0.9-0.2,1.8,0,2.7
	c0.1,0.3,0.1,0.5,0.2,0.8c0.3,1,0.6,2,0.3,3.3c-0.3,1.1-1,2.1-2.3,3.6c-0.4,0.5-0.8,1-1.3,1.7c-1.9,2.5-4.7,6.3-6,8.7
	c-1.3,2.4-1.1,3.1-1,3.4c0.2,0.5,0.6,0.9,1.1,1.4c0.6,0.6,1.2,1.2,1.8,2.2c0.6,0.9,1.3,2.3,1.3,4.7c0,2.2-0.6,5.2-1.2,7.3
	c-0.5,2.1-1.1,3.8-1.7,5.5c-0.6,1.4-1.2,2.6-1.7,3.7c-0.6,1.1-1.2,2.3-2.3,4c-0.5,0.7-1,1.5-1.5,2.2c-0.8,1.1-1.6,2.2-2,3
	c-0.3,0.5-0.4,0.7-0.4,0.9c0.3,0.2,0.7,0.5,1.1,0.8c0.5,0.3,1,0.6,1.5,1c1.2,0.9,2.4,2.1,3.2,2.9c0.9,0.9,1.8,1.8,1.8,3.2
	c0,0.6-0.2,1.2-0.4,2.1c-0.2,0.9-0.6,2.1-1,4c-0.3,1.6-0.7,3.7-1.1,5.8c-0.6,3-1.2,6.2-1.7,8.2c-0.8,3.3-1.5,4-3.4,4.7l-0.3,0.1
	c-1.4,0.6-3.4,1.6-4.3,2.5c-0.7,0.7-0.7,1.3-0.7,2.6c0,1.5,0,3.3-0.3,4.3c-0.5,1.5-1.7,1.7-3.1,2l-0.5,0.1c-0.8,0.1-1.9,0.3-3,0.5
	c-1.1,0.2-2.3,0.4-3.1,0.6l-0.5,0.1c-1.2,0.2-1.2,0.2-1.4,0.4c-0.2,0.3-0.4,0.8-0.7,1.5c-0.4,0.8-0.8,1.8-1.4,2.9
	c-1.3,2.3-3.2,4.8-4,5.7l-0.6,0.7c-0.3,0.4-0.6,0.8-0.8,1c0.1,0.1,0.5,0.4,0.7,0.7c0.6,0.6,1.3,1.3,1.7,2c0.7,1.3,0.3,2.6-0.9,3.2
	c-0.5,0.3-1.1,0.3-1.8,0.4c-0.4,0.1-0.8,0.1-1.3,0.2c-0.5,0.1-1,0.3-1.5,0.5c-0.6,0.2-1.2,0.4-1.8,0.6c-0.5,0.1-1.1,0.2-1.6,0.3
	c-0.2,0-0.5,0.1-0.7,0.1c0,0.1,0,0.3,0,0.5c0,0.7,0,1.7,0.2,2.3c0.1,0.3,0.2,0.6,1.2,0.8c0.6,0.1,1.5,0.2,2.5,0.3
	c0.9,0.1,1.9,0.1,2.8,0.3c2.3,0.4,3.7,1.3,4.1,2.6c0.3,1,0,1.9-0.2,2.9c-0.1,0.4-0.2,0.7-0.3,1.2c-0.3,1.3-0.2,2.6,0.2,3.5l-1.3,0.5
	l1.3-0.5l0.1,0.1c0.4,1,1.2,1.9,4.4,3.8c1.6,1,3.9,2.2,6.1,3.3c2.2,1.2,4.5,2.4,6.2,3.4c1.8,1.1,3,1.9,3.8,2.4
	c0.5,0.4,1,0.7,1.2,0.8h0c0.1,0,0.3-0.1,0.5-0.2c0.3-0.1,0.5-0.3,0.8-0.4c1.1-0.4,2.7-0.4,4,0.4c0.5,0.3,0.8,0.7,1.3,1.2
	c0.6,0.6,1.3,1.4,2.7,2.5c2.4,1.9,6.7,4.6,9.5,6c2.5,1.2,3.4,1.2,4.4,1.2c0.6,0,1.7,0,2.1-0.1c0,0,0-0.1,0.1-0.2
	c0.1-0.2,0.2-0.4,0.3-0.6c0.1-0.3,0.3-0.5,0.5-0.8c0.2-0.3,0.4-0.6,0.5-1c0.1-0.2,0.1-0.5,0.2-0.9c0.2-1,0.6-2.8,1.7-6.9
	c1.7-5.8,5-16.4,7-22.3c1.4-4.3,2.1-6.1,2.5-7c0.1-0.3,0.2-0.6,0.3-0.8c0.2-0.6,0.2-1,0.2-1.8c0-0.8,0-1.6-0.4-2.4
	c-0.3-0.5-0.7-1.1-1.1-1.6c-0.4-0.5-0.7-0.8-0.8-1.2c-0.3-0.6-0.2-1.1-0.1-1.4c0.3-0.7,0.9-1,1.8-1.5c0.4-0.2,0.8-0.4,1.4-0.7
	c0.7-0.3,1.5-0.8,2.4-1.3c2.1-1.1,4.4-2.4,6.1-3c2.8-1.1,4-0.3,4.9,0.7c0.5,0.5,1.2,1.2,4.3,3.3c0.4-0.7,0.8-1.6,1-2.5
	c0.3-1.1,0.3-2.2-0.6-4c-0.8-1.8-2.5-4.3-2.5-6c0-3.3,1.7-4.2,2.5-5.4c0.8-1.3,0.8-2.9,1.7-8.2c0.8-5.3,2.5-14.2,3.6-21.7
	c1.1-7.5,1.7-13.6,2.2-18.1c0.6-4.5,1.1-7.2,1.7-10.3c0.6-3.1,1.1-6.4,2.2-9.5c1.1-3.1,2.8-5.8,3.6-7.5c0.8-1.7,0.8-2.2,0.6-3.3
	s-0.8-2.8-1.1-4.5c-0.3-1.7-0.3-3.3,0-5s0.8-3.3,1.7-5.6c0.8-2.2,1.9-5,2.5-6.7c0.6-1.7,0.6-2.2,0-3.6c-0.6-1.4-1.7-3.6-1.9-4.7
	c-0.3-1.1,0.3-1.1,3.1-3.1c2.8-1.9,7.8-5.8,10.3-8.1c2.5-2.2,2.5-2.8,2.2-4.2c-0.3-1.4-0.8-3.6-0.8-5.3L483.6,168.7z"/>
<path id="TD" fill="#ECF0F1" d="M445.6,314.8c-0.5-0.5-0.6-0.6-2-0.1c-1.5,0.5-3.7,1.8-5.7,2.8c-0.9,0.5-1.8,1-2.5,1.3
	c-0.5,0.3-0.9,0.5-1.3,0.6c0.4,0.6,1,1.3,1.3,2c0.7,1.4,0.7,2.8,0.7,3.7c0,0.9,0,1.6-0.4,2.7c-0.1,0.2-0.2,0.5-0.3,0.9
	c-0.4,0.9-1,2.7-2.4,6.9c-2,5.9-5.3,16.5-6.9,22.2c-1.1,3.9-1.5,5.7-1.7,6.7c-0.1,0.5-0.2,0.9-0.3,1.2c-0.2,0.7-0.6,1.2-0.9,1.7
	c-0.1,0.2-0.2,0.3-0.3,0.5c-0.1,0.1-0.1,0.2-0.1,0.3c-0.2,0.5-0.4,1.2-1.3,1.7c-0.8,0.4-2.1,0.4-3.4,0.4c-1.2,0-2.6,0-5.6-1.5
	c-2.9-1.5-7.5-4.3-10-6.3c-1.6-1.2-2.5-2.2-3-2.8c-0.3-0.4-0.6-0.6-0.8-0.8c-0.4-0.3-1.1-0.3-1.6-0.1c-0.2,0.1-0.4,0.1-0.5,0.2
	c-0.6,0.3-1.5,0.7-2.6,0.3c-0.6-0.2-1.1-0.6-1.9-1.1c-0.8-0.6-1.9-1.3-3.6-2.3c-1.6-1-3.9-2.2-6.1-3.3c-2.2-1.2-4.5-2.4-6.2-3.4
	c-2.8-1.6-4.3-2.8-5.1-4.2c-0.3,0.1-0.5,0.2-0.8,0.2c-0.8,0.2-1.4,0.4-2.1,0.7c-1.4,0.6-3,1.7-4.5,2.7c-0.4,0.3-0.8,0.5-1.2,0.8
	c-0.5,0.3-0.9,0.6-1.3,0.8c-1,0.6-1.7,1.1-2.4,1.8c-0.7,0.7-1.4,1.6-2.1,2.6c-0.4,0.5-0.8,1-1.1,1.5c-0.5,0.7-1.1,1.3-1.6,1.8
	c-0.5,0.6-1,1.2-1.5,1.7c-0.7,0.9-1.2,1.9-1.8,3.3c-0.6,1.5-1.1,3.1-1.3,4.2c-0.2,0.9-0.2,1.7-0.3,3.3c0,0.7-0.1,1.6-0.2,2.6
	c-0.1,1.3-0.2,3-0.4,4.9c-0.3,3-0.5,6.4-0.7,9c-0.1,1.5-0.2,2.7-0.2,3.8c-0.1,1.9-0.2,3.2-0.4,4.2c-0.4,1.8-1.1,2.6-1.8,3.2
	l-1.7,1.7c-0.5,0.5-1,1-1.5,1.7c-0.6,0.8-1,1.8-1.2,2.6c-0.2,0.9-0.2,1.8,0,2.7c0.2,0.8,0.6,1.8,1.2,2.6l0.3,0.4
	c0.5,0.7,1.1,1.5,1.6,3.4c0.3,1,0.6,2.4,0.9,3.7c0.3,1.3,0.5,2.6,0.8,3.5c0.5,1.6,0.8,1.9,2.3,3.2l0.7,0.6c1.7,1.4,4.1,3.4,5.4,4.9
	c1.7,2.1,1.7,3.6,1.7,5.3c0,1.7,0,4-0.3,5.8c-0.3,1.9-1,3.3-2.1,4.4c-1,1-2.4,1.7-5.2,2.8L347,448c-2.6,1-6.1,2.4-7.9,3.5
	c-1.5,0.9-1.6,1.4-2,3.4l-0.2,0.8c-0.6,2.5-1.7,6.5-2.8,9.9c-0.4,1.2-0.8,2.3-1.2,3.4c-0.7,1.9-1.2,3.5-1.6,4.9
	c-0.5,1.8-0.5,3.3-0.3,4.7c0.2,0.8,0.4,1.5,0.9,2.9c0.3,0.7,0.6,1.5,0.9,2.5c1.2,3.4,2.8,8.3,3.7,11.9c0.9,3.8,0.9,6.1,0.9,8.1
	c0,1.9,0,3.5,0.2,4.4c0.2,0.6,0.3,0.8,0.9,0.9c0.3,0.1,0.7,0.1,1.2,0.2c1,0.1,2.1,0.3,2.9,0.8c1.5,1,1.5,2.6,1.5,4.2
	c0,1.3,0,2.9,0.2,3.8c0.2,0.7,0.5,1,1.3,1.9c0.8,0.8,1.8,1.8,2.7,2.2c0.4,0.2,0.9,0.3,1.5,0.5c0.6,0.1,1.2,0.3,2,0.6
	c0.7,0.3,1.3,0.6,2,1c0.9,0.5,1.8,0.9,2.6,1.2c1.5,0.5,3,0.5,5.8,0.5c0.5,0,1.1,0,1.7,0.1c-1.1-4.3-0.4-7.3,0-10.4
	c0.4-3.3,0.4-6.7,1.3-9.2c0.8-2.5,2.5-4.2,3.9-6.7c1.4-2.5,2.5-5.8,2.8-8.4c0.3-2.5-0.3-4.2,0.3-7c0.6-2.8,2.2-6.7,3.1-9.7
	c0.8-3.1,0.8-5.3,2.2-8.4c1.4-3.1,4.2-7,9.7-13.6c5.6-6.7,13.9-16.2,18.4-21.4c4.5-5.3,5-6.4,5-7.5c0-1.1-0.6-2.2-0.8-3.6
	c-0.3-1.4-0.3-3.1,0.8-3.9c1.1-0.8,3.3-0.8,5-0.8s2.8,0,3.6-0.6c0.8-0.6,1.4-1.7,3.9-6.1c2.5-4.5,7-12.3,10.9-18.4
	c3.9-6.1,7.2-10.6,8.4-13.6c1.1-3.1,0-4.7-0.6-6.4c-0.6-1.7-0.6-3.3-0.8-5.3c-0.3-1.9-0.8-4.2-0.6-5.8c0.3-1.7,1.4-2.8,3.3-7.8
	c1.9-5,4.7-13.9,6.1-19.2c1.4-5.3,1.4-7,1.1-8.6c-0.3-1.7-0.8-3.3-0.8-4.5c0-0.8,0.3-1.4,0.7-1.9l-0.8,1.1
	C446.9,316.1,446.2,315.4,445.6,314.8z"/>
<path id="PT" fill="#ECF0F1" d="M364.4,529c-0.6-0.1-1.3-0.1-1.9-0.1c-3,0-4.8,0-6.7-0.6c-1.1-0.4-2.1-0.9-3-1.4
	c-0.6-0.3-1.2-0.7-1.8-0.9c-0.6-0.2-1.1-0.3-1.6-0.5c-0.7-0.2-1.4-0.3-2.1-0.7c-1.3-0.7-2.5-1.9-3.4-2.8c-0.9-0.9-1.7-1.7-2-3.1
	c-0.3-1.3-0.3-3-0.3-4.5c0-0.7,0-1.8-0.2-1.9c-0.3-0.2-1.1-0.3-1.7-0.4c-0.5-0.1-1-0.1-1.4-0.3c-1.6-0.4-2.5-1.3-3-3
	c-0.3-1.3-0.3-3-0.3-5.1c0-1.9,0-4-0.8-7.5c-0.8-3.5-2.4-8.4-3.6-11.5c-0.4-1-0.7-1.8-0.9-2.5c-0.5-1.4-0.9-2.3-1.1-3.3
	c-0.4-1.8-0.3-3.7,0.3-5.9c0.4-1.5,1-3.2,1.7-5.1c0.4-1,0.8-2.1,1.2-3.3c1.1-3.3,2.2-7.2,2.7-9.6l0.2-0.8c0.4-2.1,0.8-3.6,3.2-5.1
	c2-1.3,5.5-2.7,8.4-3.8l1.3-0.5c2.7-1.1,3.6-1.6,4.3-2.2c0.7-0.7,1.1-1.6,1.3-2.9c0.3-1.6,0.3-3.7,0.3-5.3c0-1.6,0-2.3-1.1-3.6
	c-1.1-1.4-3.4-3.2-5-4.6l-0.7-0.6c-1.4-1.2-2.2-2-2.8-3.3c-2.4-0.8-3.2-1.4-3.8-2c-0.2-0.1-0.7-0.2-1.4,0.2c-0.9,0.5-2,1.5-3,2.5
	c-1,1-2.1,2.1-2.6,2.9c-0.2,0.3-0.3,0.5-0.4,0.7c-0.1,0.4-0.5,1.3-1.6,1.3c-0.8,0-1.4-0.6-2.6-1.8c-0.8-0.8-1.9-1.9-2.9-2.7
	c-1-0.8-1.8-1.1-2.5-1.1c-0.8,0-1.5,0.4-1.8,0.7c-0.1,0.1-0.2,0.2-0.3,0.4c-0.2,0.4-0.5,0.9-1.2,1.2c-1.1,0.5-2.6,0.4-4-0.3
	c-1.4-0.7-2.7-2-3.3-3c-0.4-0.5-0.5-1-0.7-1.3c-0.1,0-0.3,0-0.4,0c-0.5,0-0.7,0-1.2,0.3c-0.2,0.1-0.5,0.3-0.7,0.5
	c-0.8,0.6-1.7,1.3-2.8,1.6c-1.3,0.3-2.5-0.1-3.4-0.4c-0.1-0.1-0.3-0.1-0.4-0.2c-0.6-0.2-1-0.2-1.8-0.2c-0.7,0-1.7,0-2.4,0.2
	c-0.3,0.1-0.6,0.2-0.8,1c-0.1,0.2-0.1,0.5-0.2,0.8c-0.2,1.1-0.4,2.6-1.5,3.9c-0.9,1.2-2.4,2.1-3.5,2.8c-0.4,0.3-0.9,0.5-1.2,0.8
	c-0.3,0.2-0.5,0.5-0.7,0.7c-0.4,0.4-0.9,1-2,1.2c-1.3,0.3-3.5,0.3-5.3,0.3c-1.6,0-2.6,0-3.6,0.2c-0.6,0.2-1.2,0.4-1.8,0.7
	c-0.4,0.2-0.8,0.3-1.1,0.4c-0.2,0.1-0.4,0.1-0.6,0.2c-0.1,0-0.2,0.1-0.3,0.1c-0.1,0.5-0.1,2.3-0.1,5.1v25.3c0,1,0,2,0.2,2.6
	c0.2,0.5,0.6,0.9,1.1,1.4c0.6,0.6,1.3,1.4,1.7,2.5c0.4,1.1,0.4,2.5,0,3.8c-0.2,0.6-0.4,1.2-0.6,1.8c-0.2,0.5-0.4,1-0.5,1.5
	c-0.1,0.5-0.2,1-0.3,1.6c-0.1,0.6-0.1,1.2-0.3,1.9c-0.3,1.5-0.9,3.2-1.4,4.9c-0.6,1.7-1.2,3.5-1.9,4.8c-0.5,1-1.2,1.7-2,2.6
	c1.3,0.7,2.6,1.4,3.7,1.9c1.7,0.8,2.8,1.4,3.6,1.4c0.8,0,1.4-0.6,1.9-1.4c0.6-0.8,1.1-1.9,1.7-2.2c0.6-0.3,1.1,0.3,1.7,1.1
	c0.6,0.8,1.1,1.9,1.7,2.8c0.6,0.8,1.1,1.4,2,2c0.8,0.6,1.9,1.1,3.3,1.8c1.4,0.7,3.1,1.5,4.7,3.2c8.4,8.4,15,14.2,18.9,17.4
	c3.9,3.2,5,3.8,5.6,4.3c0.6,0.6,0.6,1.1,1.8,3.5c1.3,2.4,3.8,6.5,10.4,16.6c1.7,3.3,1.7,4.2,1.4,5.4c-0.3,1.3-0.8,2.9-1.4,4.9
	c-0.6,2-1.1,4.2-1.4,5.6c-0.3,1.4-0.3,2,0.3,3.1c0.6,1.1,1.7,2.8,3.5,5c1.8,2.2,4.3,5,5.9,7.7c1.5,2.6,2.1,5.2,2.9,6.4
	c0.8,1.3,1.9,1.3,2.5,0.6c0.6-0.7,0.6-2.1,0.7-3.6c0.1-1.5,0.4-3.2,0.8-4c0.4-0.8,1-0.8,1.7-0.4c0.7,0.4,1.5,1.3,4.9,4.6
	c5,1.7,5,3.3,5.2,4.7c0.1,1.4,0.4,2.5,1,3.1c0.6,0.6,1.4,0.6,1.8,0.3c0.4-0.3,0.4-0.8,0.7-2.5c0.3-1.7,0.8-4.5,0.8-6.7
	c0-2.2-0.6-3.9-0.4-6.8c0.1-2.9,1-7.1,1-10.4c0-1.7,2.5-4.2,3.8-5.7s1.3-2.1,0.7-2.6c-0.6-0.6-1.7-1.1-2.5-2.2s-1.4-2.8-1.3-7
	c0.1-1.6,0.2-3.5,0.3-5.7c0-0.2,0-0.5,0-0.7c0-0.5,0-1,0-1.6c0-0.3,0-0.7,0-1.1c0-0.5,0-0.9,0-1.4c0-0.4,0-0.9-0.1-1.3
	c0-0.5,0-0.9-0.1-1.4c0-0.5-0.1-0.9-0.2-1.4c-0.1-0.5-0.1-1-0.2-1.5c-0.1-0.5-0.2-1-0.2-1.5c-0.1-0.5-0.2-1-0.3-1.5L364.4,529z"/>
<path id="KS" fill="#ECF0F1" d="M271.3,491.4c0.6-1.1,1.2-2.8,1.7-4.4c0.5-1.6,1.1-3.3,1.4-4.6c0.1-0.6,0.2-1.2,0.2-1.7
	c0.1-0.7,0.2-1.3,0.3-2c0.2-0.6,0.4-1.2,0.6-1.8c0.2-0.5,0.4-1,0.5-1.5c0.2-0.9,0.2-1.7,0-2.3c-0.2-0.5-0.6-0.9-1.1-1.4
	c-0.6-0.6-1.3-1.3-1.7-2.5c-0.3-1-0.3-2.3-0.3-3.5v-25.3c0-4.8,0-5.6,0.4-6.5c0.5-1,1.4-1.2,2-1.4c0.1,0,0.3-0.1,0.5-0.1
	c0.3-0.1,0.6-0.2,1-0.4c0.7-0.3,1.4-0.6,2.2-0.8c1.3-0.3,2.5-0.3,4.2-0.3c1.5,0,3.7,0,4.7-0.2c0.3-0.1,0.3-0.1,0.6-0.4
	c0.2-0.3,0.6-0.6,1.1-1c0.4-0.3,0.8-0.6,1.3-0.9c1-0.6,2.2-1.4,2.9-2.2c0.6-0.8,0.8-1.7,0.9-2.6c0.1-0.4,0.1-0.7,0.2-1
	c0.4-1.5,1.2-2.5,2.6-2.9c1-0.4,2.3-0.4,3.2-0.4c0.9,0,1.6,0,2.7,0.4c0.2,0.1,0.3,0.1,0.5,0.2c0.6,0.2,1.3,0.5,1.8,0.3
	c0.5-0.1,1.2-0.7,1.8-1.1c0.3-0.2,0.6-0.5,0.9-0.6c1.2-0.8,2.1-0.8,2.7-0.8c0.8,0,1.7,0,2.4,0.7c0.3,0.3,0.5,0.7,0.6,1
	c0.1,0.3,0.2,0.5,0.4,0.8c0.4,0.7,1.4,1.6,2.3,2c0.8,0.4,1.4,0.3,1.6,0.3c-0.1,0,0-0.1,0-0.1c0.1-0.3,0.4-0.6,0.7-1
	c0.8-0.8,2.2-1.5,3.8-1.5c1.3,0,2.7,0.5,4.2,1.7c1.2,0.9,2.4,2.1,3.2,2.9c0.1,0.1,0.2,0.2,0.3,0.3c0,0,0-0.1,0.1-0.1
	c0.6-0.9,1.8-2.1,3-3.3c1.2-1.2,2.4-2.4,3.7-3c1.5-0.8,3.2-0.8,4.2,0c0.1,0.1,0.2,0.2,0.4,0.3c0.1,0.1,0.3,0.3,0.9,0.6
	c-0.1-0.5-0.2-1.1-0.3-1.6c-0.3-1.3-0.5-2.6-0.8-3.5c-0.4-1.4-0.8-1.9-1.2-2.5c-0.1-0.1-0.2-0.3-0.3-0.4c-0.4-0.6-1.2-1.9-1.6-3.5
	c-0.3-1.3-0.3-2.7,0-4c0.4-1.6,1.2-2.9,1.6-3.5c0.6-1,1.3-1.6,1.8-2.2l1.7-1.7c0.5-0.5,0.8-0.8,1-1.8c0.2-0.8,0.2-2,0.3-3.8
	c0.1-1,0.1-2.3,0.2-3.8c0.2-2.6,0.5-6,0.7-9.1c0.2-1.8,0.3-3.5,0.4-4.8c0.1-1.1,0.1-1.9,0.2-2.6c0.1-1.7,0.2-2.6,0.4-3.7
	c0.3-1.3,0.8-3,1.5-4.7c0.7-1.7,1.3-2.8,2.1-3.9c0.5-0.6,1-1.3,1.6-1.9c0.5-0.5,1-1.1,1.5-1.7c0.4-0.5,0.7-0.9,1.1-1.4
	c0.8-1,1.5-2.1,2.4-2.9c0.9-0.9,1.8-1.5,2.9-2.2c0.4-0.2,0.8-0.5,1.2-0.8c0.4-0.2,0.7-0.5,1.1-0.8c1.5-1.1,3.3-2.3,5-3
	c0.8-0.4,1.6-0.6,2.4-0.8c0.2-0.1,0.4-0.1,0.6-0.2c-0.2-1.5-0.1-2.8,0.1-3.6c0.1-0.5,0.2-0.9,0.3-1.4c0.1-0.4,0.3-1.1,0.3-1.3
	c0,0-0.3-0.5-2-0.7c-0.7-0.1-1.7-0.2-2.5-0.3c-1-0.1-2-0.1-2.8-0.3c-1.8-0.4-2.8-1.2-3.3-2.6c-0.3-1-0.3-2.3-0.3-3.2
	c0-0.9,0-2.2,1.3-2.9c0.5-0.3,1.1-0.3,1.8-0.4c0.4-0.1,0.8-0.1,1.3-0.2c0.5-0.1,1-0.3,1.5-0.5c0.6-0.2,1.2-0.4,1.8-0.6
	c0.5-0.1,1.1-0.2,1.6-0.3c0.1,0,0.2,0,0.4-0.1c-0.3-0.3-0.6-0.7-0.9-1c-0.4-0.4-0.8-0.8-1.1-1.3h-11.7c-3.1,0-4.7,0-6.3-0.3
	c-0.1,0-0.1,0-0.2,0c-2.3,3.4-3.2,4.3-4.4,5.2c-1.2,0.9-2.8,2-5.3,3.6l-1.1,0.7c-2,1.2-4.2,2.6-6,4c-2.1,1.6-3.7,3.1-4.7,4.7
	c-0.3,0.5-0.6,1.1-0.9,1.6c-0.7,1.2-1.3,2.4-2.6,3.6c-1.6,1.6-4.1,3.3-7.6,5c-0.6,0.3-1.1,0.6-1.7,0.8c-2.1,1-4,1.9-5.2,3.1
	c-1.1,1.1-1.6,2.5-2.2,4c-0.2,0.5-0.4,0.9-0.6,1.4c-0.4,0.9-0.8,1.7-1.2,2.5c-0.5,1-1.1,2.1-1.5,3.3c-0.6,1.6-1.1,3.6-1.5,5.4
	c-0.1,0.6-0.3,1.2-0.4,1.7c-0.6,2.3-1.2,4.2-3.6,7c-1.3,1.5-3.2,3.3-5.2,5.2c-1.4,1.3-2.9,2.7-4.3,4.1c-1.9,1.9-3.7,3.9-5.1,5.5
	c-1,1.2-1.9,2.2-2.7,2.9c-0.8,0.8-1.3,1.2-1.7,1.5c-0.4,0.4-0.5,0.4-0.5,0.5c-0.2,0.6-0.2,2.3-0.2,3.2c0,1.2,0,2-0.4,2.8
	c-0.5,0.9-1.3,1.6-2.6,2.3c-1.2,0.6-3,1.2-4.2,1.5c-0.3,0.1-0.5,0.1-0.7,0.2c-0.7,0.1-0.8,0.2-0.9,0.3c-0.3,0.3-0.8,1.2-1,2.4
	c-0.3,1.3-0.3,2.9-0.3,3.9c0,1.3,0,2.2-0.7,2.9c-0.7,0.7-1.9,0.8-3,0.3c-0.2-0.1-0.4-0.2-0.6-0.3c-0.3-0.2-0.5-0.3-0.7-0.3
	c-0.3,0-1.1,0.3-1.8,1c-0.8,0.8-1.2,1.9-1.3,2.2c-0.1,0.2-0.1,0.3-0.1,0.5c-0.2,0.6-0.4,1.5-1.4,2c-0.5,0.3-1.2,0.3-2,0.5
	c-0.4,0.1-0.9,0.1-1.5,0.2c-0.6,0.1-1.2,0.3-1.8,0.4c-0.9,0.3-1.9,0.5-3,0.7c-0.7,0.1-1.4,0.2-2.3,0.2c-1.1,0-2.1-0.2-3-0.6
	c-0.6-0.3-1.1-0.7-1.5-1c-0.5-0.4-0.8-0.7-1.3-0.8c-0.6-0.1-1.6,0-2.6,0.1c-0.9,0.1-1.9,0.2-2.9,0.2c-2.4,0-4.9-0.6-6.6-1.6
	c-0.8-0.5-1.3-1-1.7-1.4c-0.1,0.1-0.2,0.3-0.3,0.4c-0.2,0.2-0.3,0.5-0.5,0.8c-0.1,0.2-0.3,0.4-0.4,0.6c-0.3,0.4-0.6,0.8-1,1.4
	l-1.2-0.7c5,9.9,9.1,18.2,11.7,22.9c2.2,3.9,3.3,5.4,4.3,6.6c0,0,0,0,0,0c1-1.7,1.6-2.3,2.1-2.8c0.7-0.7,1.3-1.3,1.8-1.3
	c0.6,0,1.1,0.6,1.7,1.1c0.6,0.6,1.1,1.1,1.7,1.4c0.6,0.3,1.1,0.3,1.4,0s0.3-0.8,0.8-1.1c0.6-0.3,1.7-0.3,2.2-0.6
	c0.6-0.3,0.6-0.8,0.3-1.4c-0.3-0.6-0.8-1.1-0.8-1.7c0-0.6,0.6-1.1,0.8-1.1c0.3,0,0.3,0.6,0.6,0.8s0.8,0.3,1.1,0.6
	c0.3,0.3,0.3,0.8,0.6,1.4s0.8,1.1,1.1,2c0.3,0.8,0.3,1.9,0,2.5c-0.3,0.6-0.8,0.6-1.4,0.6c-0.6,0-1.1,0-1.4,0.3s-0.3,0.8,0,1.4
	c0.3,0.6,0.8,1.1,0.8,1.7c0,0.6-0.6,1.1-1.1,1.4c-0.6,0.3-1.1,0.3-1.4,0.6c-0.3,0.3-0.3,0.8,0.3,1.1c0.6,0.3,1.7,0.3,2.2,0.6
	c0.6,0.3,0.6,0.8,0.8,1.4c0.3,0.6,0.8,1.1,1.4,2c0.6,0.8,1.1,1.9,1.4,3.6c0.3,1.7,0.3,3.9,0,5c-0.3,1.1-0.8,1.1-1.1,0.8
	c-0.3-0.3-0.3-0.8-0.8-1.1c-0.6-0.3-1.7-0.3-2.2,0c-0.6,0.3-0.6,0.8-0.3,1.4s0.8,1.1,1.4,1.4c0.6,0.3,1.1,0.3,1.1,0.6
	s-0.6,0.8-1.1,1.1c-0.6,0.3-1.1,0.3-1.4,0.6s-0.3,0.8,0,1.1s0.8,0.3,1.4,0.3c0.6,0,1.1,0,1.4-0.3c0.3-0.3,0.3-0.8,0.8-1.1
	c0.6-0.3,1.7-0.3,2.2,0c0.6,0.3,0.6,0.8,0.8,1.1c0.3,0.3,0.8,0.3,1.1,0c0.3-0.3,0.3-0.8,0.6-0.8c0.3,0,0.8,0.6,1.4,1.1
	c0.6,0.6,1.1,1.1,1.4,1.7c0.3,0.6,0.3,1.1,0.6,1.4s0.8,0.3,1.1,0.6s0.3,0.8,0.6,1.4c0.3,0.6,0.8,1.1,0.8,1.4c0,0.3-0.6,0.3-0.8,0.6
	c-0.3,0.3-0.3,0.8-0.6,1.1s-0.8,0.3-1.1,0.6s-0.3,0.8-0.6,1.1c-0.3,0.3-0.8,0.3-1.4,0.3c-0.6,0-1.1,0-1.4,0.4
	c-0.2,0.3-0.3,0.9-1,1.8c-0.1,0-0.1,0-0.2,0c0.2,0,0.4,0.1,0.6,0.1c0.8,0.2,1.4,0.6,2.5,1.4c1.1,0.8,2.8,1.9,4.7,3
	c0.3,0.2,0.6,0.3,0.9,0.5l-1-0.9C270.4,492.7,270.9,492.1,271.3,491.4z"/>
<path id="KSC" fill="#ECF0F1" d="M262.9,487.9c0.3-0.4,0.8-0.4,1.4-0.4c0.6,0,1.1,0,1.4-0.3c0.3-0.3,0.3-0.8,0.6-1.1
	s0.8-0.3,1.1-0.6s0.3-0.8,0.6-1.1c0.3-0.3,0.8-0.3,0.8-0.6c0-0.3-0.6-0.8-0.8-1.4c-0.3-0.6-0.3-1.1-0.6-1.4s-0.8-0.3-1.1-0.6
	s-0.3-0.8-0.6-1.4c-0.3-0.6-0.8-1.1-1.4-1.7c-0.6-0.6-1.1-1.1-1.4-1.1c-0.3,0-0.3,0.6-0.6,0.8c-0.3,0.3-0.8,0.3-1.1,0
	c-0.3-0.3-0.3-0.8-0.8-1.1c-0.6-0.3-1.7-0.3-2.2,0c-0.6,0.3-0.6,0.8-0.8,1.1c-0.3,0.3-0.8,0.3-1.4,0.3c-0.6,0-1.1,0-1.4-0.3
	s-0.3-0.8,0-1.1s0.8-0.3,1.4-0.6c0.6-0.3,1.1-0.8,1.1-1.1s-0.6-0.3-1.1-0.6c-0.6-0.3-1.1-0.8-1.4-1.4s-0.3-1.1,0.3-1.4
	c0.6-0.3,1.7-0.3,2.2,0c0.6,0.3,0.6,0.8,0.8,1.1c0.3,0.3,0.8,0.3,1.1-0.8c0.3-1.1,0.3-3.3,0-5c-0.3-1.7-0.8-2.8-1.4-3.6
	c-0.6-0.8-1.1-1.4-1.4-2c-0.3-0.6-0.3-1.1-0.8-1.4c-0.6-0.3-1.7-0.3-2.2-0.6c-0.6-0.3-0.6-0.8-0.3-1.1c0.3-0.3,0.8-0.3,1.4-0.6
	c0.6-0.3,1.1-0.8,1.1-1.4c0-0.6-0.6-1.1-0.8-1.7c-0.3-0.6-0.3-1.1,0-1.4s0.8-0.3,1.4-0.3c0.6,0,1.1,0,1.4-0.6c0.3-0.6,0.3-1.7,0-2.5
	c-0.3-0.8-0.8-1.4-1.1-2s-0.3-1.1-0.6-1.4c-0.3-0.3-0.8-0.3-1.1-0.6s-0.3-0.8-0.6-0.8c-0.3,0-0.8,0.6-0.8,1.1c0,0.6,0.6,1.1,0.8,1.7
	c0.3,0.6,0.3,1.1-0.3,1.4c-0.6,0.3-1.7,0.3-2.2,0.6c-0.6,0.3-0.6,0.8-0.8,1.1s-0.8,0.3-1.4,0c-0.6-0.3-1.1-0.8-1.7-1.4
	c-0.6-0.6-1.1-1.1-1.7-1.1c-0.6,0-1.1,0.6-1.8,1.3c-0.5,0.5-1.1,1.1-2.1,2.8c0,0,0,0,0,0c0.2,0.3,0.4,0.5,0.6,0.8
	c1.1,1.5,2.2,3.5,2.8,4.9c0.6,1.4,0.6,2.2,0.4,2.6c-0.1,0.4-0.4,0.4-1.3,0.7c-0.8,0.3-2.2,0.8-2.6,2c-0.4,1.1,0.1,2.8,1.8,5.3
	c1.7,2.5,4.5,5.8,6.4,8.1c1.9,2.2,3.1,3.3,4.2,4.5c1.1,1.1,2.2,2.2,3.1,3.1s1.6,1.6,1.9,2.2c0.3,0.6,0.1,1-0.1,1.2
	c-0.2,0.2-0.5,0.2-1.3-0.3c-0.8-0.5-2.2-1.5-2.9-1.8c-0.7-0.3-0.7-0.1-0.7,0.3s0,0.8,0.8,1.5c0.8,0.7,2.5,1.7,3.9,2.2
	c0.3,0.1,0.6,0.2,0.9,0.3c0.1,0,0.2,0,0.3,0.1c0.2,0,0.4,0.1,0.5,0.1c0.2,0,0.4,0.1,0.5,0.1c0.1,0,0.3,0,0.4,0.1c0.1,0,0.1,0,0.2,0
	C262.6,488.7,262.7,488.2,262.9,487.9z"/>
<path id="TN" fill="#ECF0F1" d="M212.4,394.1c1.1-0.3,2.2-0.3,3.1,0c0.8,0.3,1.4,0.8,2.5,1.4c1.1,0.6,2.8,1.1,3.6,1.1
	s0.8-0.6,1.1-0.8c0.3-0.3,0.8-0.3,1.1,0c0.3,0.3,0.3,0.8,0.8,1.1c0.6,0.3,1.7,0.3,2.2,0.6c0.6,0.3,0.6,0.8,0.6,1.4s0,1.1,0.3,1.1
	c0.3,0,0.8-0.6,1.4-0.8c0.6-0.3,1.1-0.3,1.7,0c0.6,0.3,1.1,0.8,1.4,1.4s0.3,1.1,0,1.4s-0.8,0.3-1.4,0.6c-0.6,0.3-1.1,0.8-1.4,1.7
	c-0.3,0.8-0.3,1.9-0.3,2.8c0,0.8,0,1.4,0.3,1.7c0.3,0.3,0.8,0.3,1.4,0.6c0.6,0.3,1.1,0.8,1.7,1.1c0.6,0.3,1.1,0.3,1.4,0.6
	c0.3,0.3,0.3,0.8,0.3,1.4s0,1.1-0.3,1.4c-0.3,0.3-0.8,0.3-1.4,0c-0.6-0.3-1.1-0.8-1.4-0.8s-0.3,0.6-0.3,1.1s0,1.1,0.3,1.4
	s0.8,0.3,0.8,0.6s-0.6,0.8-1.1,0.8c-0.6,0-1.1-0.6-1.7-0.8c-0.6-0.3-1.1-0.3-1.4,0c-0.3,0.3-0.3,0.8-0.6,1.1
	c-0.3,0.3-0.8,0.3-1.1,0.6c-0.3,0.3-0.3,0.8-0.3,1.4c0,0.4,0,0.8,0.2,1.1c0.1-0.1,0.2-0.2,0.3-0.3c0.2-0.2,0.3-0.4,0.4-0.7
	c0.6-1,1.3-2,2.5-2c0.8,0,1.4,0.6,1.9,1.1c0.4,0.4,0.8,0.8,1.3,1.1c1.2,0.7,3.2,1.2,5.1,1.2c0.9,0,1.8-0.1,2.6-0.2
	c1.3-0.1,2.5-0.3,3.5-0.1c1.2,0.2,1.9,0.9,2.5,1.4c0.3,0.3,0.6,0.5,0.9,0.7c0.7,0.4,2,0.4,3.6,0.2c0.9-0.1,1.8-0.4,2.7-0.6
	c0.7-0.2,1.4-0.4,2-0.5c0.6-0.1,1.2-0.2,1.6-0.3c0.3,0,0.7-0.1,0.9-0.1c0-0.1,0.1-0.2,0.1-0.3c0.1-0.2,0.1-0.4,0.2-0.6
	c0.2-0.6,0.8-2.1,2-3.3c1.1-1.1,2.5-1.8,3.8-1.8c1,0,1.7,0.5,2.2,0.8c0,0,0,0,0,0c0-0.2,0-0.3,0-0.5c0-1.2,0-2.9,0.3-4.4
	c0.3-1.6,1-3,1.8-3.8c0.7-0.7,1.5-0.9,2.2-1.1c0.2,0,0.4-0.1,0.6-0.1c1-0.3,2.6-0.8,3.6-1.3c0.7-0.4,1.2-0.7,1.3-1.1
	c0.1-0.3,0.1-0.7,0.1-1.6c0-1.6,0-3.1,0.3-4.1c0.3-0.9,0.8-1.3,1.4-1.7c0.4-0.3,0.8-0.7,1.5-1.3c0.7-0.7,1.5-1.6,2.6-2.8
	c1.4-1.6,3.3-3.6,5.2-5.6c1.4-1.4,2.9-2.8,4.3-4.2c2-1.8,3.8-3.6,5.1-5c2-2.3,2.5-3.7,3-5.8c0.1-0.5,0.3-1.1,0.4-1.7
	c0.2-0.9,0.4-1.8,0.7-2.7c-2.8,0-4.4-0.1-5.5-0.3c-2.2-0.5-2.3-1.9-2.3-2.6c-0.1,0.1-0.2,0.2-0.3,0.4c-0.3,0.5-0.3,0.7-0.3,1.2
	c0,0.6,0,2.5-1.7,2.5c-0.3,0-0.6-0.1-0.8-0.2c-0.1,0.1-0.3,0.2-0.5,0.3c-0.5,0.2-1.1,0.4-1.7,0.4c-0.6,0-1.3-0.1-1.7-0.4
	c-1-0.5-1.2-1.4-1.4-2c0-0.1-0.1-0.3-0.1-0.5c-0.2-0.7-0.8-1.8-1.3-2.9l-2-3.9c-0.8-1.6-1.9-3.8-2.7-5.2c-0.3-0.4-0.5-0.8-0.7-1.1
	c-0.5-0.7-0.9-1.3-0.9-2.1c0-1.1,0.8-1.9,1.5-2.6c0.4-0.4,1-1,1.1-1.3c0.1-0.2,0.1-0.3,0-0.4c-0.1-0.2-0.4-0.6-1.2-1.1
	c-0.2-0.1-0.4-0.3-0.7-0.4c-0.7-0.5-1.6-1-2.3-1.7c-0.4-0.4-0.8-0.9-1.2-1.4c-0.4-0.6-0.9-1.2-1.6-1.9c-0.7-0.7-1.6-1.5-2.5-2.2
	c-0.8-0.7-1.6-1.4-2.2-1.9c-0.8-0.8-1.1-1.3-1.3-1.7c-0.1,0-0.2,0.1-0.3,0.1c-0.3,0.1-0.6,0.2-1,0.4c-0.7,0.3-1.4,0.6-2.2,0.8
	c-0.5,0.1-1.1,0.2-1.6,0.3c-0.3,0-0.8,0.1-0.9,0.2c0,0,0,0-0.1,0.1c-0.3,0.3-0.8,0.9-1.9,0.9c-0.7,0-1.6-0.2-2.6-0.5
	c-0.5-0.1-1.1-0.3-1.6-0.4c-1.3-0.3-2.3-0.3-3.4-0.3c-1,0-1.9,0-2.7,0.4c-0.5,0.2-1,0.7-1.6,1.1c-0.6,0.4-1.2,0.9-1.9,1.4
	c-0.5,0.3-1,0.6-1.6,0.8c-1,0.5-2,1-3,1.8c-1,0.8-1.9,1.9-2.9,3c-0.6,0.7-1.2,1.4-1.8,1.9c-0.6,0.6-1.1,1-1.5,1.4
	c-0.4,0.3-0.9,0.7-0.9,0.9c-0.1,0.2,0.2,1,0.4,1.4c0.1,0.2,0.1,0.4,0.2,0.6c0.2,0.5,0.7,2.1-0.3,3.1c-0.7,0.7-1.9,0.8-3,0.3
	c-0.4-0.2-0.7-0.5-1-0.7c-0.2-0.2-0.4-0.3-0.6-0.4c-0.2-0.1-0.3-0.1-0.4,0c-0.2,0.1-0.6,0.4-1.1,1.2c-0.3,0.4-0.5,0.9-0.8,1.3
	c-0.3,0.5-0.6,1-0.9,1.5c-0.4,0.6-1.3,2-3.1,2c-0.9,0-1.9-0.4-3-0.9l-0.8-0.3c-0.6-0.2-1.2-0.5-1.9-0.7c-0.9-0.3-1.9-0.7-2.9-1.1
	l-0.1-0.1c-1.2-0.5-2.4-1-6-0.4l-0.2-1.4c0,0.1,0,0.2,0,0.2c-0.1,0.8-0.2,1.5-0.3,2.3c-0.1,0.7-0.2,1.5-0.3,2.3c0,0.2,0,0.3-0.1,0.5
	c-0.1,0.8-0.2,1.6-0.4,2.5c0,0.1,0,0.3-0.1,0.4c-0.1,0.9-0.3,1.8-0.4,2.7c-0.8,4.7-1.9,9.7-2.8,12.8c-0.8,3.1-1.4,4.2-1.4,5
	c0,0.8,0.6,1.4,1.1,1.9c0.6,0.6,1.1,1.1,1.4,3.6c0.3,2.5,0.3,7,0.8,9.7c0.2,1.2,0.6,2.1,1.2,3c2.1-2.3,2.7-3.4,3.4-4.2
	C210.2,395,211.3,394.4,212.4,394.1z"/>
<path id="TNC" fill="#ECF0F1" d="M226,420c-0.1-0.3-0.2-0.7-0.2-1.1c0-0.6,0-1.1,0.3-1.4c0.3-0.3,0.8-0.3,1.1-0.6
	c0.3-0.3,0.3-0.8,0.6-1.1c0.3-0.3,0.8-0.3,1.4,0c0.6,0.3,1.1,0.8,1.7,0.8c0.6,0,1.1-0.6,1.1-0.8s-0.6-0.3-0.8-0.6s-0.3-0.8-0.3-1.4
	s0-1.1,0.3-1.1s0.8,0.6,1.4,0.8c0.6,0.3,1.1,0.3,1.4,0c0.3-0.3,0.3-0.8,0.3-1.4s0-1.1-0.3-1.4c-0.3-0.3-0.8-0.3-1.4-0.6
	c-0.6-0.3-1.1-0.8-1.7-1.1c-0.6-0.3-1.1-0.3-1.4-0.6c-0.3-0.3-0.3-0.8-0.3-1.7c0-0.8,0-1.9,0.3-2.8c0.3-0.8,0.8-1.4,1.4-1.7
	c0.6-0.3,1.1-0.3,1.4-0.6s0.3-0.8,0-1.4s-0.8-1.1-1.4-1.4c-0.6-0.3-1.1-0.3-1.7,0c-0.6,0.3-1.1,0.8-1.4,0.8c-0.3,0-0.3-0.6-0.3-1.1
	s0-1.1-0.6-1.4c-0.6-0.3-1.7-0.3-2.2-0.6c-0.6-0.3-0.6-0.8-0.8-1.1c-0.3-0.3-0.8-0.3-1.1,0c-0.3,0.3-0.3,0.8-1.1,0.8
	s-2.5-0.6-3.6-1.1c-1.1-0.6-1.7-1.1-2.5-1.4c-0.8-0.3-1.9-0.3-3.1,0c-1.1,0.3-2.2,0.8-3.2,2c-0.7,0.8-1.3,1.8-3.4,4.2c0,0,0,0,0,0
	c0,0.1,0.1,0.1,0.1,0.2c0.1,0.2,0.2,0.3,0.4,0.5c0.1,0.1,0.2,0.2,0.3,0.4c0.2,0.2,0.3,0.4,0.5,0.6c0.1,0.1,0.2,0.3,0.4,0.4
	c0.2,0.2,0.4,0.5,0.7,0.7c0.1,0.1,0.2,0.3,0.4,0.4c0.4,0.4,0.8,0.8,1.2,1.2c3.3,3.3,8.9,8.9,15.2,16.7c0.3-0.4,0.6-0.8,0.8-1.1
	C225.9,420.1,225.9,420.1,226,420z"/>
<path id="CY" fill="#ECF0F1" d="M214.5,352.3l0.1,0.1c0.9,0.4,1.9,0.7,2.8,1.1c0.7,0.3,1.3,0.5,1.9,0.7l0.9,0.4
	c0.8,0.3,1.6,0.7,2,0.7c0.1,0,0.3,0,0.8-0.8c0.3-0.4,0.5-0.9,0.8-1.3c0.3-0.5,0.6-1,0.9-1.5c0.7-1,1.4-1.7,2.2-2.1
	c1-0.5,2-0.5,2.9,0c0.4,0.2,0.7,0.4,1,0.6c-0.3-0.9-0.8-2-0.4-3.2c0.3-0.9,1-1.5,1.8-2.1c0.4-0.3,0.9-0.7,1.4-1.2
	c0.5-0.5,1.1-1.1,1.6-1.8c1-1.2,2.1-2.4,3.2-3.3c1.2-1,2.5-1.6,3.5-2.2c0.5-0.2,0.9-0.5,1.4-0.7c0.6-0.4,1.1-0.8,1.7-1.2
	c0.7-0.5,1.3-1,2-1.4c1.4-0.7,2.8-0.7,4-0.7c1.2,0,2.4,0,3.9,0.3c0.5,0.1,1.1,0.3,1.7,0.4c0.6,0.2,1.4,0.4,1.8,0.4
	c0.2-0.2,0.5-0.5,0.9-0.7c0.5-0.3,1.1-0.3,1.8-0.4c0.4-0.1,0.8-0.1,1.3-0.2c0.6-0.2,1.2-0.4,1.8-0.7c0.4-0.2,0.8-0.3,1.1-0.4
	c0.5-0.2,2.1-0.7,3.1,0.3c0.2,0.2,0.4,0.5,0.5,0.7c0.1,0.3,0.3,0.6,0.9,1.2c0.5,0.5,1.2,1.1,2,1.8c0.9,0.8,1.9,1.6,2.7,2.4
	c0.9,0.9,1.4,1.6,1.9,2.2c0.3,0.4,0.6,0.8,0.9,1.1c0.5,0.5,1.2,0.9,1.8,1.3c0.3,0.2,0.5,0.3,0.8,0.5c1,0.7,1.7,1.4,2.1,2.2
	c0.5,0.9,0.5,2,0,2.9c-0.4,0.8-1,1.4-1.6,2c-0.2,0.2-0.5,0.5-0.7,0.7c0.1,0.2,0.2,0.4,0.4,0.6c0.2,0.3,0.5,0.7,0.8,1.2
	c0.9,1.5,2,3.7,2.8,5.4l1.9,3.9c0.6,1.2,1.2,2.3,1.5,3.2c0.1,0.2,0.1,0.4,0.2,0.6c0,0.1,0.1,0.2,0.1,0.3c0.3,0,0.7,0,0.9,0
	c0.1-0.3,0.6-1,1.5-1c0.1-0.5,0.3-1.1,0.7-1.9c0.6-0.9,1.9-2.3,2.8-2.7c0.8-0.4,1.4-0.2,1.7,0c0.8,0.5,0.8,1.5,0.8,2v1.7
	c0,0,0,0,0,0c0,0,0.1,0,0.2,0c0.9,0.2,2.9,0.2,5.7,0.2c0-0.1,0-0.1,0.1-0.2c0.5-1.4,1.1-2.5,1.7-3.6c0.4-0.8,0.8-1.5,1.1-2.3
	c0.2-0.4,0.3-0.9,0.5-1.3c0.6-1.6,1.3-3.5,2.8-5c1.5-1.5,3.6-2.5,5.9-3.6c0.6-0.3,1.1-0.5,1.7-0.8c3.2-1.6,5.5-3.1,6.9-4.5
	c1-1,1.5-2,2.1-3c0.3-0.6,0.7-1.2,1-1.8c1.2-1.8,3-3.6,5.3-5.4c1.9-1.4,4.2-2.9,6.2-4.1l1.1-0.7c2.3-1.5,3.9-2.5,5-3.4
	c0.8-0.6,1.5-1.2,3.2-3.7c-0.3,0-0.5-0.1-0.9-0.1c-0.6,0-1.3,0.1-2,0.2c-1.3,0.1-2.6,0.3-3.8,0.1c-2.2-0.4-3.6-1.9-5-3.5
	c-0.4-0.5-0.9-1.1-1.3-1.6c-1-1.3-2.1-2.6-3-3.6c-0.6-0.6-1.2-1.1-1.6-1.4c-0.6-0.5-1.1-0.9-1.4-1.4c-0.5-1-0.1-1.9,0.2-2.4
	c0.1-0.2,0.2-0.4,0.3-0.6c0.2-0.6,0.2-1.4,0-2.3c-0.2-1-0.7-1.8-1.3-2.4c-0.6-0.6-1.5-1.1-3.1-1.6c-0.7-0.2-1.4-0.4-2.1-0.7
	c-1.1-0.3-2.3-0.7-3.2-1c-1.2-0.5-2-1-2.6-1.7c-0.4,0.1-0.7,0.2-1,0.2c-0.1,0-0.3,0.1-0.4,0.1c0,0,0,0.1,0,0.1v2
	c0,1.2,0,2.3-0.4,3.1c-0.4,0.8-1.3,1.6-3.3,1c-0.1,0-0.3-0.1-0.4-0.2c-0.7-0.3-1.7-0.6-3.3-0.6c-1,0-2.4,0.1-3.8,0.3
	c-1.4,0.1-2.9,0.3-4,0.3c-1.5,0-2.6-0.2-3.4-0.4c-0.3-0.1-0.7-0.1-0.8-0.1c-0.2,0-0.4,0.1-0.7,0.3c-0.3,0.2-0.6,0.3-1.1,0.5
	c-1.1,0.4-2.5,0.4-3.7,0c-0.4-0.1-0.8-0.3-1.1-0.5c-0.4-0.2-0.6-0.3-0.7-0.3c-0.3,0-1,0.3-1.5,0.5c-0.3,0.1-0.6,0.2-0.8,0.3
	c-1,0.3-1.8,0.3-2.7,0.3h-2.8c-0.9,0-1.7,0-2.6-0.4c-0.8-0.4-1.4-1-2-1.7l-2-2c-0.9-0.9-2-2-2.7-3c-0.4-0.5-0.5-1-0.7-1.3
	c-0.3,0-0.6,0-1,0h-8.9c-1,0-1.4,0-1.6,0.1c-0.2,0.1-0.4,0.3-0.8,0.5c-0.4,0.3-1,0.8-1.9,1.3c-0.4,0.3-0.8,0.6-1.3,0.9
	c-1.6,1-3.5,2.3-4.9,3.5c-1,0.8-1.8,1.7-2.4,2.4c-0.6,0.7-1.1,1.3-1.7,1.6c-1.8,1.2-3.2-0.2-3.7-0.7c-0.2-0.2-0.4-0.4-0.6-0.6
	c-0.2,0.2-0.4,0.6-0.8,1.3c-0.3,0.6-0.7,1.4-1,2.3c-0.6,1.4-1.2,2.8-1.8,3.7c-1,1.7-2,2.1-3.1,2.1c-0.6,0-1.4,0-2.3-0.4
	c-0.2-0.1-0.5-0.3-0.7-0.4c-0.1-0.1-0.2-0.2-0.3-0.2c-0.1,0.1-0.2,0.2-0.4,0.2c-0.2,0.2-0.5,0.3-0.7,0.4c-0.4,0.2-0.8,0.3-1.1,0.4
	c-0.2,0.1-0.4,0.1-0.6,0.2c-0.4,0.2-0.9,0.7-1.3,1.1c-0.5,0.5-0.9,0.9-1.1,1.4c-0.1,0.3-0.2,0.7-0.2,1c-0.1,0.6-0.2,1.2-0.4,1.6
	c-0.3,0.7-0.9,1-1.2,1.2c-0.2,0.1-0.3,0.2-0.4,0.3c-0.2,0.2-0.3,0.4-0.5,0.7c-0.4,0.6-0.9,1.2-1.5,1.5c-0.3,0.2-0.6,0.2-0.9,0.2
	c-0.8,0-1.5-0.5-2-0.9c-0.1-0.1-0.3-0.2-0.4-0.3c-0.4-0.3-0.9-0.5-1.3-0.8c-0.5-0.3-1-0.6-1.5-0.9c-0.4-0.3-0.7-0.5-1-0.8
	c-0.3-0.2-0.6-0.4-0.8-0.5c-0.1-0.1-0.2-0.1-0.5,0.1l-0.2,0.1c-0.7,0.4-1.8,1.2-4.6,1.3c0.2,1.3,0.4,2.5,0.6,3.7
	c0.3,2.2,0.3,4.5,0.3,7.5c0,3.1,0,7-0.3,10.3s-0.8,6.1-1.4,9.7c0,0.1,0,0.3-0.1,0.4C211.5,351,213.1,351.7,214.5,352.3z
	 M257.6,317.5c0.6,0,1.1,0.6,1.7,1.1c0.6,0.6,1.1,1.1,1.4,1.1c0.3,0,0.3-0.6,0.6-0.8c0.3-0.3,0.8-0.3,1.4-0.3s1.1,0,1.7,0
	c0.6,0,1.1,0,1.1-0.3c0-0.3-0.6-0.8-0.8-1.4s-0.3-1.1,0-1.1s0.8,0.6,1.4,0.8c0.6,0.3,1.1,0.3,1.7,0.3c0.6,0,1.1,0,2,0
	c0.8,0,1.9,0,2.5,0.3c0.6,0.3,0.6,0.8,0.8,1.1c0.3,0.3,0.8,0.3,1.1,0.6c0.3,0.3,0.3,0.8,0,1.4c-0.3,0.6-0.8,1.1-0.8,1.4
	s0.6,0.3,1.1,0.3c0.6,0,1.1,0,1.4,0.3c0.3,0.3,0.3,0.8,0.6,1.4c0.3,0.6,0.8,1.1,0.8,1.7s-0.6,1.1-1.1,1.7c-0.6,0.6-1.1,1.1-1.4,1.7
	s-0.3,1.1-0.6,1.1c-0.3,0-0.8-0.6-1.1-1.1s-0.3-1.1-0.6-1.7c-0.3-0.6-0.8-1.1-1.4-1.1s-1.1,0.6-1.4,1.1c-0.3,0.6-0.3,1.1-0.6,1.4
	c-0.3,0.3-0.8,0.3-1.1,0.6c-0.3,0.3-0.3,0.8-0.6,1.1s-0.8,0.3-1.4,0c-0.6-0.3-1.1-0.8-1.4-1.4s-0.3-1.1-0.3-1.7c0-0.6,0-1.1-0.3-1.4
	c-0.3-0.3-0.8-0.3-1.4,0s-1.1,0.8-1.4,0.8c-0.3,0-0.3-0.6-0.6-0.8c-0.3-0.3-0.8-0.3-1.4-0.6c-0.6-0.3-1.1-0.8-1.4-1.4
	c-0.3-0.6-0.3-1.1-0.6-1.9c-0.3-0.8-0.8-2-0.8-2.8C256.5,318.1,257,317.5,257.6,317.5z"/>
<path id="CYC" fill="#ECF0F1" d="M257.8,323.7c0.3,0.6,0.8,1.1,1.4,1.4c0.6,0.3,1.1,0.3,1.4,0.6c0.3,0.3,0.3,0.8,0.6,0.8
	c0.3,0,0.8-0.6,1.4-0.8s1.1-0.3,1.4,0c0.3,0.3,0.3,0.8,0.3,1.4c0,0.6,0,1.1,0.3,1.7s0.8,1.1,1.4,1.4c0.6,0.3,1.1,0.3,1.4,0
	s0.3-0.8,0.6-1.1c0.3-0.3,0.8-0.3,1.1-0.6c0.3-0.3,0.3-0.8,0.6-1.4c0.3-0.6,0.8-1.1,1.4-1.1s1.1,0.6,1.4,1.1
	c0.3,0.6,0.3,1.1,0.6,1.7s0.8,1.1,1.1,1.1c0.3,0,0.3-0.6,0.6-1.1s0.8-1.1,1.4-1.7c0.6-0.6,1.1-1.1,1.1-1.7s-0.6-1.1-0.8-1.7
	c-0.3-0.6-0.3-1.1-0.6-1.4c-0.3-0.3-0.8-0.3-1.4-0.3c-0.6,0-1.1,0-1.1-0.3s0.6-0.8,0.8-1.4c0.3-0.6,0.3-1.1,0-1.4
	c-0.3-0.3-0.8-0.3-1.1-0.6c-0.3-0.3-0.3-0.8-0.8-1.1c-0.6-0.3-1.7-0.3-2.5-0.3c-0.8,0-1.4,0-2,0c-0.6,0-1.1,0-1.7-0.3
	c-0.6-0.3-1.1-0.8-1.4-0.8s-0.3,0.6,0,1.1s0.8,1.1,0.8,1.4c0,0.3-0.6,0.3-1.1,0.3c-0.6,0-1.1,0-1.7,0s-1.1,0-1.4,0.3
	c-0.3,0.3-0.3,0.8-0.6,0.8c-0.3,0-0.8-0.6-1.4-1.1c-0.6-0.6-1.1-1.1-1.7-1.1c-0.6,0-1.1,0.6-1.1,1.4c0,0.8,0.6,1.9,0.8,2.8
	C257.6,322.6,257.6,323.1,257.8,323.7z"/>
<path id="YL" fill="#ECF0F1" d="M211.3,316.4l0.3-0.2c1.1-0.6,2.1-0.7,3.1-0.2c0.4,0.2,0.8,0.5,1.2,0.8c0.3,0.2,0.5,0.4,0.9,0.6
	c0.4,0.3,0.9,0.5,1.3,0.8c0.5,0.3,1,0.6,1.5,0.9c0.2,0.1,0.3,0.2,0.5,0.3c0.1,0.1,0.2,0.1,0.3,0.2c0.1-0.1,0.2-0.3,0.3-0.4
	c0.3-0.4,0.5-0.7,0.8-1c0.4-0.4,0.7-0.6,1-0.7c0.1,0,0.1-0.1,0.2-0.1c0,0,0-0.5,0.1-0.7c0.1-0.5,0.2-1,0.3-1.5
	c0.4-1.1,1.1-1.9,1.7-2.5c0.6-0.6,1.3-1.3,2-1.7c0.4-0.2,0.8-0.3,1.1-0.4c0.2-0.1,0.4-0.1,0.6-0.2c0.1-0.1,0.3-0.2,0.4-0.3
	c0.5-0.3,1.1-0.7,1.9-0.7c0.8,0,1.4,0.4,1.9,0.7c0.1,0.1,0.3,0.2,0.4,0.3c0.3,0.1,0.6,0.1,1.1,0.1c0.1,0,0.2,0,0.2,0
	c0,0,0.2-0.1,0.6-0.7c0.5-0.8,1.1-2.1,1.6-3.4c0.4-0.9,0.8-1.7,1.1-2.4c0.7-1.4,1.6-3,3.2-3c1.1,0,1.9,0.8,2.6,1.5
	c0.1,0.1,0.2,0.2,0.3,0.3c0.3-0.2,0.6-0.6,1-1.1c0.7-0.8,1.5-1.7,2.6-2.6c1.6-1.3,3.6-2.7,5.2-3.7c0.5-0.3,0.9-0.6,1.3-0.8
	c0.8-0.5,1.3-0.9,1.7-1.2c0.5-0.3,0.8-0.6,1.2-0.8c0.8-0.4,1.6-0.4,2.8-0.4h8.9c1.3,0,2.2,0,2.9,0.7c0.3,0.3,0.5,0.7,0.6,1
	c0.1,0.3,0.2,0.5,0.4,0.8c0.5,0.7,1.6,1.8,2.3,2.6l1.9,1.9c0.4,0.4,1,1,1.3,1.1c0.3,0.1,0.6,0.1,1.3,0.1h2.8c0.8,0,1.2,0,1.8-0.2
	c0.2-0.1,0.4-0.2,0.7-0.3c0.8-0.3,1.7-0.7,2.5-0.7c0.9,0,1.5,0.3,2,0.6c0.2,0.1,0.4,0.2,0.7,0.3c0.6,0.2,1.4,0.2,1.9,0
	c0.2-0.1,0.4-0.2,0.7-0.3c0.5-0.3,1.2-0.6,2-0.6c0.5,0,0.9,0.1,1.4,0.2c0.7,0.2,1.5,0.3,2.8,0.3c1,0,2.4-0.1,3.8-0.3
	c1.4-0.1,2.9-0.3,4-0.3c2.1,0,3.4,0.5,4.2,0.8l0.4,0.1c0,0,0.1,0,0.1,0c0.1-0.5,0.1-1.2,0.1-1.5v-2c0-0.5,0-1.9,1.5-2.6
	c-0.6-0.2-1.2-0.4-1.8-0.2c-0.6,0.1-1.4,0.5-2.2,0.9c-0.8,0.4-1.5,0.7-2.4,1c-1.7,0.6-3.6,0.7-5.7,0.3c-0.7-0.1-1.4-0.3-2-0.4
	c-0.9-0.2-1.7-0.4-2.2-0.4c-0.4,0-0.7,0.1-1,0.3c-0.3,0.1-0.6,0.3-1,0.3c-1.7,0-1.7-1.7-1.7-3v-4.5c0-1.8,0-3.5,0.3-4.8
	c0.2-0.7,0.4-1.2,0.7-1.7c0.2-0.4,0.4-0.7,0.5-1.1c0.2-1,0.2-2.6,0.2-3.8c0-1.5,0-2.7,0.3-3.8c0.2-0.5,0.4-0.9,0.6-1.2
	c0.1-0.1,0.1-0.2,0.2-0.3c-0.1-0.2-0.5-0.5-0.7-0.7c-0.5-0.5-0.9-0.9-1.4-1.1c-0.6-0.2-1.8-0.2-4-0.2c-2.6,0-6.5,0-9.6-0.3
	c-1.7-0.2-3.1-0.4-4.5-0.6c-1.2-0.2-2.4-0.4-3.6-0.5c-0.9-0.1-1.9-0.2-2.9-0.2c-2-0.1-4.1-0.3-5.9-0.6c-1.6-0.3-2.8-0.9-4-1.4
	c-0.8-0.3-1.5-0.7-2.2-0.9c-1.8-0.5-3.8-0.5-6-0.5c-2.1,0-4.3,0-5.6,0.3c-0.7,0.1-1.1,0.4-1.7,0.6c-0.4,0.2-0.9,0.4-1.4,0.7
	c-1.6,0.7-4.1,1.2-5.3,1.5c-1.5,0.3-2.2,0.3-2.8,0.3c-0.6,0-1.3,0-2.4-0.3c-0.9-0.3-2.1-0.9-3.5-1.6c-0.6-0.3-1.2-0.6-1.9-1l0.7-1.2
	c-0.1,0.1-0.2,0.3-0.3,0.4c-0.2,0.3-0.4,0.6-0.7,0.8c-0.2,0.2-0.3,0.4-0.5,0.6c-0.2,0.3-0.4,0.5-0.6,0.8c-0.2,0.2-0.3,0.4-0.5,0.6
	c-0.2,0.2-0.4,0.5-0.5,0.7c-0.1,0.2-0.3,0.4-0.4,0.6c-0.2,0.2-0.3,0.4-0.5,0.7c-0.1,0.2-0.3,0.4-0.4,0.6c-0.1,0.2-0.3,0.4-0.4,0.6
	c-0.1,0.2-0.3,0.4-0.4,0.5c-0.1,0.2-0.3,0.4-0.4,0.6c-0.1,0.2-0.3,0.4-0.4,0.5c-0.1,0.2-0.2,0.3-0.3,0.5c-0.1,0.2-0.2,0.4-0.4,0.5
	c-0.1,0.2-0.2,0.3-0.3,0.5c-0.1,0.2-0.2,0.3-0.3,0.5c-0.1,0.2-0.2,0.3-0.3,0.5c-0.1,0.2-0.2,0.3-0.3,0.5c-0.1,0.1-0.2,0.3-0.3,0.4
	c-0.1,0.2-0.2,0.3-0.3,0.5c-0.1,0.1-0.2,0.3-0.2,0.4c-0.1,0.2-0.2,0.3-0.3,0.5c-0.1,0.1-0.1,0.2-0.2,0.4c-0.1,0.2-0.2,0.4-0.3,0.5
	c-0.1,0.1-0.1,0.2-0.2,0.3c-0.1,0.2-0.2,0.4-0.3,0.5c-0.1,0.1-0.1,0.2-0.2,0.3c-0.1,0.2-0.2,0.4-0.3,0.6c0,0.1-0.1,0.2-0.1,0.3
	c-0.1,0.3-0.3,0.6-0.4,0.8c-2.4,4.6-4.6,9.6-6,14.1c-1.4,4.5-1.9,8.4-2.2,12c-0.3,3.6-0.3,7,0,9.7c0.1,0.8,0.2,1.5,0.3,2.2l0-1.4
	C210.1,317.2,210.8,316.8,211.3,316.4z"/>
<path id="CH" fill="#ECF0F1" d="M232.7,265.3c0.6,0.2,1,0.2,1.5,0.2c0.5,0,1,0,2.2-0.3c1.4-0.3,3.5-0.8,4.8-1.3
	c0.5-0.2,0.8-0.4,1.2-0.6c0.7-0.3,1.3-0.7,2.4-0.9c1.5-0.3,3.8-0.3,6.1-0.3c2.3,0,4.6,0,6.8,0.6c0.9,0.3,1.8,0.6,2.6,1
	c1.1,0.5,2.1,0.9,3.5,1.2c1.5,0.3,3.5,0.5,5.4,0.6c1,0.1,2.1,0.1,3,0.2c1.4,0.1,2.6,0.3,3.8,0.5c1.3,0.2,2.7,0.4,4.3,0.6
	c3,0.3,6.8,0.3,9.3,0.3c2.6,0,3.8,0,4.9,0.3c0.4,0.1,0.7,0.3,1,0.5c1.5-0.8,2.6-0.8,3.3-0.8c1,0,1.4,0,1.6-0.1
	c0.1-0.1,0.5-0.3,0.7-0.9c0.2-0.6,0.2-1.6,0.2-2.3c0-0.1,0-0.3,0-0.4c0,0-0.1,0-0.1,0c-0.2,0.1-0.4,0.1-0.6,0.2
	c-0.8,0.3-1.8,0.7-2.9,0.7c-1.6,0-3.1-0.8-3.9-2c-0.3-0.5-0.5-1-0.7-1.5c-0.2-0.5-0.3-0.9-0.6-1.1c-0.4-0.4-1.4-0.9-2.2-1.2
	c-0.4-0.2-0.8-0.3-1.1-0.5c-1.5-0.7-2.4-1.7-2.4-4c0-1.1,0.2-2.7,0.5-4.3c0.1-0.9,0.3-1.9,0.4-2.8c0.3-2.3,0.3-4.5,0-5.7
	c-0.1-0.7-0.4-1.1-0.6-1.7c-0.2-0.4-0.4-0.9-0.7-1.4c-0.6-1.6-1.2-4-1.5-5.6c-0.1-0.7-0.2-1.3-0.2-1.9c-0.1-0.7-0.1-1.2-0.3-1.6
	c-0.1-0.3-0.3-0.6-0.5-1c-0.2-0.3-0.4-0.5-0.5-0.8c-0.4-0.9-0.3-1.6-0.2-2c0.2-0.4,0.6-1,1.5-1.3c0.5-0.2,1.1-0.2,1.8-0.3
	c0.7-0.1,1.4-0.2,2-0.4c0,0,0.1,0,0.1,0c-0.2-0.4-0.4-0.7-0.5-1c-0.2-0.4-0.3-0.7-0.5-1c-0.5-0.5-1.6-0.9-2.8-1.4
	c-0.4-0.2-0.8-0.3-1.2-0.5c-1.8-0.8-4.3-2-5.9-3.3c-1.3-1.1-2-2.2-2.5-2.9l-0.3-0.4c-0.5-0.8-0.9-1-1.2-1.1
	c-0.3-0.1-0.7-0.2-1.2-0.2c-0.5-0.1-1.1-0.2-1.6-0.3c-1.2-0.4-2.1-1.3-2.5-2.5c-0.2-0.5-0.3-1.1-0.3-1.6c-0.1-0.4-0.1-0.9-0.2-1.2
	c-0.1-0.2-0.2-0.5-0.4-0.7c-0.3-0.5-0.6-1-0.6-1.7c0-0.8,0.4-1.4,0.7-1.9c0,0,0-0.1,0.1-0.1c0,0,0,0,0,0c-0.6-0.1-1.3-0.3-1.9-0.7
	c-0.2-0.1-0.3-0.3-0.5-0.4c-0.2-0.2-0.3-0.3-1.1-0.5l0.2-1.4c-1.1,1.4-2.2,3-3.3,4.9c-2.2,3.9-4.5,9.5-6.1,13.1
	c-1.7,3.6-2.8,5.3-4.2,7.2c-1.4,1.9-3.1,4.2-4.7,6.4c-1.7,2.2-3.3,4.5-5.3,7.5c-1.9,3.1-4.2,7-5.7,11.4c-1.5,4.3-2.3,9.1-6.9,14
	c0.5,0.3,1.1,0.6,1.5,0.8C230.8,264.5,231.9,265,232.7,265.3z"/>
<path id="TC" fill="#ECF0F1" d="M267.2,198.4c0,0,0.1,0.1,0.1,0.1c0.1,0.1,0.5,0.1,0.7,0.2c0.4,0.1,0.9,0.2,1.3,0.4
	c0.5,0.3,0.9,0.7,1.1,1.3c0.2,0.6,0.1,1.3-0.2,2c-0.1,0.2-0.3,0.5-0.4,0.7c-0.1,0.1-0.2,0.3-0.2,0.4c0,0.1,0.1,0.2,0.2,0.3
	c0.2,0.3,0.4,0.7,0.6,1.2c0.2,0.5,0.3,1.1,0.3,1.6c0.1,0.4,0.1,0.9,0.2,1.1c0.1,0.4,0.4,0.7,0.8,0.8c0.3,0.1,0.7,0.2,1.2,0.2
	c0.5,0.1,1.1,0.2,1.6,0.3c1.4,0.4,2.1,1.4,2.7,2.2c0.1,0.2,0.2,0.3,0.3,0.5c0.5,0.7,0.9,1.5,1.9,2.3c1.1,0.9,2.9,1.9,5.3,2.9
	c0.4,0.2,0.8,0.3,1.2,0.5c1.5,0.6,2.9,1.2,3.7,2c0.6,0.6,0.9,1.3,1.1,1.8c0.2,0.4,0.3,0.7,0.5,1c0.4,0.4,1.3,0.8,2.3,1.3
	c0.5,0.2,1,0.5,1.5,0.7c0.6,0.3,1.1,0.6,1.7,0.9c1.1,0.6,2.3,1.3,3.8,1.8c2.1,0.8,4.7,1.3,6.8,1.3c1.2,0,2.2-0.2,3.1-0.3
	c0.7-0.1,1.3-0.2,1.9-0.2c1.2,0,2,0.5,2.5,0.8c0-0.1,0-0.2,0-0.3c0.1-0.5,0.2-1,0.3-1.5c0.4-1.1,1.1-1.9,1.7-2.5
	c0.5-0.5,0.8-0.8,1-1.8c0.1-0.5,0.2-1,0.2-1.6c0.1-1.2,0.3-2.6,0.7-3.6c0.5-1.1,1.2-1.8,1.8-2.5c0.3-0.3,0.6-0.6,0.9-0.9
	c0.4-0.5,0.8-1.3,1.1-2c0.3-0.6,0.5-1.1,0.8-1.6c1-1.4,2.2-1.4,3.4-1.4h3.9c1.2,0,2.5,0,3.2,1.3c0.1,0.2,0.2,0.4,0.2,0.6
	c0.4-0.8,0.8-1.7,1.4-2.4c0.7-0.9,1.5-1.5,2-1.9c0.2-0.2,0.4-0.3,0.6-0.5c0.1-0.1,0.2-0.2,0.3-0.4c0.2-0.3,0.7-1.2,1.8-1.2
	c0.6,0,1.1,0.2,1.8,0.5c0.4,0.1,0.8,0.3,1.3,0.4c0.5,0.1,0.9,0.2,1.4,0.2c0.6,0.1,1.2,0.2,1.8,0.4c0.3,0.1,0.5,0.2,0.7,0.3
	c0.1,0.1,0.3,0.1,0.4,0.2c0.4-0.3,1.3-1.5,1.8-2.3l0.5-0.7c0.9-1.2,1.8-2.2,3.1-2.2c1.1,0,1.9,0.8,2.6,1.5c0.1,0.1,0.2,0.2,0.3,0.3
	c0.1-0.1,0.1-0.1,0.2-0.2c0.4-0.5,0.9-1.1,1.6-1.6c1.4-1.1,3.4-1.6,4.4-1.9c0.4-0.1,0.7-0.2,1-0.2c0.1,0,0.2,0,0.2,0
	c0,0,0-0.1,0-0.1c0.1-0.3,0.1-0.6,0.3-1c0.3-0.8,0.9-2.4,2.2-3.2c0.8-0.5,1.7-0.7,2.5-0.8c0.3-0.1,0.6-0.1,0.9-0.2
	c0.9-0.2,1.8-0.7,3.2-1.5c1.3-0.8,3-1.9,4.1-2.7l0.2-0.1c1.1-0.8,2.4-1.8,4.8-0.2c1.8,1.2,4.6,4,6.4,6.1c1.9,2.2,2.5,3.5,2.8,4.4
	l0.1,0.3c0,0.1,0.1,0.3,0.1,0.3c0,0,0.2,0.1,0.7,0.2c1.6,0.3,4.9,0.3,7.6,0.3h7c1.1,0,2.3,0,3.5,0.6c0.5-0.7,1-1.2,1.8-1.6
	c1.3-0.6,2.9-0.7,4.1-0.7c-0.3-0.7-0.9-1.8-1.5-2.8c-0.5-1-1.1-2-1.6-3c-1.2-2.4-1.8-4.2-2.1-6.3c-0.3-2-0.3-4.4-0.3-5.8
	c0-1.5,0-2.5,1.2-3.8c0.3-0.3,0.7-0.6,1.2-1.1c0.9-0.8,2.2-1.8,3.8-3.5c1.9-2,4.2-4.8,8.3-9.9c-1.1-0.4-2.1-0.7-2.9-0.7
	c-0.7,0-1.3,0.2-2.1,0.4c-0.5,0.1-1,0.3-1.5,0.4c-1.5,0.3-3.3,0.3-4.7,0.3c-1.5,0-2.9,0-4.1-0.8c-0.9-0.6-1.5-1.6-2.4-3l-1.2-2
	c-0.6-1-1.4-2.2-2.2-3.6c-0.6,0.4-1.2,0.7-1.8,1c-1.4,0.7-3.1,1.6-9.6,3.2c-0.8,0.9-1,1.7-1.3,2.7c-0.1,0.5-0.3,0.9-0.4,1.4
	c-0.7,1.7-2,3.1-2.9,3.5c-0.6,0.3-1.5,0.4-2.3-0.5c0-0.1-0.6-0.3-2.3,0.3c-1.7,0.6-3.7,1.6-4.9,2.6c-0.8,0.6-1.3,1.3-1.7,1.8
	c-0.3,0.3-0.5,0.6-0.7,0.9c-1,1-2,1-2.6,1c-0.4,0-0.5,0-1,0.4c-0.4,0.4-0.8,1-1.3,1.5c-0.5,0.6-1,1.3-1.5,1.8
	c-1.1,1.1-2.1,1.2-2.9,1.2h-2c-0.7,0-1.5,0-2.2,0.6c-0.5,0.3-1,0.9-1.5,1.5c-0.6,0.6-1.1,1.2-1.7,1.6c-0.5,0.4-1,0.5-1.5,0.5
	c-0.6,0-1.1-0.2-1.5-0.4c-0.1-0.1-0.3-0.1-0.4-0.2c-0.3-0.1-0.7-0.2-1.2-0.2c-0.5-0.1-1.1-0.2-1.6-0.3c-1.1-0.4-2-1.1-2.5-2.1
	c-0.1-0.3-0.2-0.6-0.3-0.8c-0.1,0-0.2,0-0.3,0.1c-0.4,0.1-0.8,0.3-1.3,0.5c-0.5,0.2-1,0.4-1.5,0.6c-1.1,0.4-2,0.4-3.1,0
	c-0.3-0.1-0.7-0.3-1.1-0.4c-0.6-0.2-1.2-0.5-1.8-0.7c-0.9-0.2-1.9-0.2-3-0.2h-3.1c-0.9,0-1.7,0-2.6-0.4c-0.8-0.4-1.4-1-2.3-1.9
	c-0.8-0.8-1.9-1.9-2.6-2.3c-0.5-0.3-0.7-0.3-1.7-0.3c-1,0-2.6,0-3.6,0.2c-0.5,0.1-0.9,0.3-1.4,0.7c-0.3,0.2-0.7,0.4-1.1,0.6
	c-0.5,0.3-1.2,0.5-1.9,0.8c-0.8,0.3-1.7,0.7-2.6,1.1c-0.5,0.2-0.9,0.5-1.4,0.7c-1.3,0.7-2.5,1.4-3.7,1.6c-1.4,0.3-2.6-0.1-3.5-0.4
	c-0.2-0.1-0.5-0.1-0.7-0.2c-0.3-0.1-0.6-0.1-0.8-0.2c-0.9-0.2-2-0.4-3.3-1c-1-0.5-2.1-1.2-3.3-2c-0.9-0.6-1.8-1.2-2.6-1.6
	c-0.9-0.5-1.8-0.9-2.7-1.3c-0.8-0.4-1.6-0.7-2.4-1.2c-1.5-0.9-2.8-2.1-3.7-3.1l-3.9-3.9c-0.3,0.4-0.5,0.9-0.7,1.3
	c-0.1,0.2-0.3,0.5-0.4,0.7c-0.3,0.5-0.6,0.9-0.8,1.4c-0.1,0.2-0.3,0.5-0.4,0.7c-0.3,0.4-0.5,0.9-0.7,1.3c-0.1,0.2-0.3,0.5-0.4,0.7
	c-0.2,0.4-0.4,0.8-0.7,1.2c-0.1,0.2-0.3,0.5-0.4,0.7c-0.2,0.4-0.4,0.7-0.6,1.1c-0.1,0.2-0.2,0.4-0.4,0.6c-0.2,0.4-0.4,0.8-0.6,1.1
	c-0.1,0.2-0.2,0.3-0.3,0.5c-0.3,0.5-0.5,1-0.8,1.5c-1.9,3.9-2.5,6.1-3.6,9.2c-1.1,3.1-2.8,7-4.7,10c-0.7,1.1-1.4,2.1-2.2,3
	C266.3,197.5,266.8,198,267.2,198.4z M284,198.3c0.3-0.6,0.3-1.1,1.1-1.4c0.8-0.3,2.5-0.3,4.2,0c1.7,0.3,3.3,0.8,5,1.1
	c1.7,0.3,3.3,0.3,4.5,0c1.1-0.3,1.7-0.8,2.2-0.8c0.6,0,1.1,0.6,0.8,1.1c-0.3,0.6-1.4,1.1-1.4,1.7c0,0.6,1.1,1.1,2.2,1.1
	s2.2-0.6,3.1-1.1c0.8-0.6,1.4-1.1,1.9-1.7c0.6-0.6,1.1-1.1,2-1.4c0.8-0.3,2-0.3,3.1,0c1.1,0.3,2.2,0.8,3.3,1.4
	c1.1,0.6,2.2,1.1,2.5,1.4c0.3,0.3-0.3,0.3-0.8,0.6s-1.1,0.8-1.7,1.7c-0.6,0.8-1.1,1.9-1.4,2.8s-0.3,1.4-1.1,1.4s-2.5-0.6-3.9-0.6
	s-2.5,0.6-3.6,0.6c-1.1,0-2.2-0.6-3.1-0.6c-0.8,0-1.4,0.6-1.4,1.4c0,0.8,0.6,1.9,0.8,2.8c0.3,0.8,0.3,1.4-0.3,1.7
	c-0.6,0.3-1.7,0.3-2.8,0.6c-1.1,0.3-2.2,0.8-3.1,1.1c-0.8,0.3-1.4,0.3-2,0.8c-0.6,0.6-1.1,1.7-1.7,1.7c-0.6,0-1.1-1.1-1.9-1.7
	c-0.8-0.6-2-0.6-2.5-1.1c-0.6-0.6-0.6-1.7-1.1-2.2c-0.6-0.6-1.7-0.6-2.5-0.8c-0.8-0.3-1.4-0.8-1.7-1.4c-0.3-0.6-0.3-1.1-0.6-1.4
	c-0.3-0.3-0.8-0.3-0.8-0.6s0.6-0.8,1.1-1.4c0.6-0.6,1.1-1.1,1.4-1.7c0.3-0.6,0.3-1.1,0-1.7c-0.3-0.6-0.8-1.1-0.8-1.7
	C283.2,199.5,283.7,198.9,284,198.3z"/>
<path id="TCC" fill="#ECF0F1" d="M284,203.4c-0.3,0.6-0.8,1.1-1.4,1.7c-0.6,0.6-1.1,1.1-1.1,1.4s0.6,0.3,0.8,0.6
	c0.3,0.3,0.3,0.8,0.6,1.4c0.3,0.6,0.8,1.1,1.7,1.4c0.8,0.3,1.9,0.3,2.5,0.8c0.6,0.6,0.6,1.7,1.1,2.2c0.6,0.6,1.7,0.6,2.5,1.1
	c0.8,0.6,1.4,1.7,1.9,1.7c0.6,0,1.1-1.1,1.7-1.7c0.6-0.6,1.1-0.6,2-0.8c0.8-0.3,1.9-0.8,3.1-1.1c1.1-0.3,2.2-0.3,2.8-0.6
	c0.6-0.3,0.6-0.8,0.3-1.7c-0.3-0.8-0.8-2-0.8-2.8c0-0.8,0.6-1.4,1.4-1.4c0.8,0,2,0.6,3.1,0.6c1.1,0,2.2-0.6,3.6-0.6s3.1,0.6,3.9,0.6
	s0.8-0.6,1.1-1.4s0.8-1.9,1.4-2.8c0.6-0.8,1.1-1.4,1.7-1.7s1.1-0.3,0.8-0.6c-0.3-0.3-1.4-0.8-2.5-1.4c-1.1-0.6-2.2-1.1-3.3-1.4
	c-1.1-0.3-2.2-0.3-3.1,0c-0.8,0.3-1.4,0.8-2,1.4c-0.6,0.6-1.1,1.1-1.9,1.7c-0.8,0.6-1.9,1.1-3.1,1.1s-2.2-0.6-2.2-1.1
	c0-0.6,1.1-1.1,1.4-1.7c0.3-0.6-0.3-1.1-0.8-1.1c-0.6,0-1.1,0.6-2.2,0.8c-1.1,0.3-2.8,0.3-4.5,0c-1.7-0.3-3.3-0.8-5-1.1
	c-1.7-0.3-3.3-0.3-4.2,0c-0.8,0.3-0.8,0.8-1.1,1.4c-0.3,0.6-0.8,1.1-0.8,1.7c0,0.6,0.6,1.1,0.8,1.7
	C284.3,202.2,284.3,202.8,284,203.4z"/>
<path id="MEW" fill="#ECF0F1" d="M284.6,159.9l4.2,4.1c0.9,0.9,2,2,3.2,2.7c0.6,0.4,1.3,0.7,2.1,1c0.9,0.4,1.8,0.8,2.9,1.4
	c0.9,0.5,1.8,1.1,2.8,1.7c1.1,0.7,2.2,1.4,3,1.9c1,0.5,1.8,0.7,2.6,0.8c0.3,0.1,0.7,0.1,1,0.2c0.3,0.1,0.6,0.2,0.8,0.2
	c0.8,0.2,1.4,0.4,2.2,0.3c0.8-0.2,1.9-0.7,2.9-1.3c0.5-0.3,1-0.5,1.5-0.8c1-0.5,1.9-0.9,2.8-1.2c0.6-0.3,1.2-0.5,1.7-0.7
	c0.4-0.2,0.7-0.4,0.9-0.5c0.6-0.4,1.2-0.7,2.1-1c1.3-0.3,3.1-0.3,4.2-0.3c1.2,0,2.1,0,3.3,0.8c1,0.6,2.1,1.8,3,2.7
	c0.7,0.7,1.2,1.2,1.6,1.4c0.3,0.1,0.6,0.1,1.3,0.1h3.1c1.2,0,2.4,0,3.7,0.3c0.8,0.2,1.5,0.5,2.2,0.8c0.3,0.1,0.7,0.3,0.9,0.4
	c0.6,0.2,0.8,0.2,1.4,0c0.4-0.1,0.8-0.3,1.3-0.5c0.5-0.2,1.1-0.4,1.5-0.6c0.5-0.2,2.1-0.7,3.1,0.3c0.4,0.4,0.6,0.9,0.7,1.3
	c0,0.1,0.1,0.3,0.2,0.5c0.1,0.1,0.3,0.5,0.9,0.7c0.3,0.1,0.7,0.2,1.2,0.2c0.5,0.1,1.1,0.2,1.6,0.3c0.3,0.1,0.5,0.2,0.7,0.3
	c0.1,0.1,0.3,0.1,0.4,0.2c0.2-0.2,0.6-0.7,1-1.2c0.6-0.6,1.2-1.4,1.9-1.9c1.5-1.1,3-1.1,3.9-1.1h2c0.4,0,0.5,0,1-0.4
	c0.4-0.4,0.8-1,1.3-1.5c0.5-0.6,1-1.3,1.5-1.8c1.1-1.1,2.1-1.2,2.9-1.2c0.5,0,0.6,0,0.7-0.2c0.1-0.1,0.3-0.3,0.5-0.6
	c0.5-0.6,1.1-1.5,2.2-2.3c1.6-1.3,4.1-2.5,5.7-3c1.9-0.6,3.4-0.7,4.4-0.2c0.1,0.1,0.2,0.1,0.3,0.2c0.4-0.4,0.8-1,1.1-1.7
	c0.1-0.3,0.2-0.7,0.3-1.1c0.3-1.2,0.7-2.7,2.2-4.1l0.1,0.1c0.1-0.2,0.2-0.5,0.3-0.7c0.2-0.3,0.3-0.6,0.4-1c0.3-1,0.3-2.6,0.3-3.9
	c0-1.5,0-2.7,0.3-3.8c0-0.1,0.1-0.2,0.1-0.3c-0.4-0.1-0.8-0.3-1.3-0.6c-0.9-0.6-1.5-1.5-2.2-2.6c-0.2-0.3-0.4-0.7-0.7-1.1
	c-1-1.5-2.6-3.7-4-5.1c-1-1-1.9-1.6-2.8-1.9c-0.4-0.1-0.7-0.2-1.1-0.3c-0.4-0.1-0.8-0.1-1.3-0.3c-0.5-0.1-1.1-0.3-1.7-0.5
	c-0.9-0.3-2-0.6-3.3-0.9c-0.7-0.2-1.5-0.4-2.3-0.5c-1.6-0.4-3.3-0.8-4.5-1.2c-1.1-0.4-1.8-0.7-2.3-1c-0.3-0.2-0.5-0.3-0.8-0.4
	c-0.3-0.1-0.8-0.2-1.3-0.2c-0.5-0.1-1.1-0.1-1.7-0.3c-1.3-0.3-2.6-1-3.8-1.9c-0.5-0.4-1-0.8-1.5-1.3c-0.8-0.7-1.7-1.4-2.9-2.4
	c-0.8-0.6-1.7-1.2-2.6-1.9c-1.8-1.3-3.6-2.6-5-3.7c-1.1-1-1.8-1.8-2.3-2.4c-0.4-0.4-0.6-0.7-0.9-0.9c-0.3-0.2-0.9-0.3-1.7-0.4
	c-0.4-0.1-0.8-0.1-1.2-0.2c-0.7-0.1-1.5-0.4-2.3-0.6c-0.7-0.2-1.5-0.4-2.1-0.5c-0.4-0.1-0.7-0.1-1-0.2c-1.1-0.2-2-0.3-2.8-1
	c-0.7-0.7-0.8-1.6-1-2.3c-0.1-0.3-0.1-0.5-0.2-0.7c-0.1-0.3-0.3-0.6-0.5-1c-0.2-0.2-0.3-0.4-0.4-0.6c0,0,0,0,0,0.1
	c-0.5,0.8-1.2,1.4-2,1.8l-0.6-1.3c-0.1,0.5-0.2,1-0.4,1.4c-0.6,1.1-1.7,1.7-3.1,3.6c-1.4,1.9-3.1,5.3-4.7,7.2
	c-1.7,1.9-3.3,2.5-5,2.8c-1.7,0.3-3.3,0.3-4.7,1.1c-1.4,0.8-2.5,2.5-4.7,5c-2.2,2.5-5.6,5.8-7.2,9.2c-5,10-8.4,15.9-11.7,21.6
	c-0.2,0.4-0.4,0.8-0.7,1.1L284.6,159.9z"/>
<path id="XZC" fill="#ECF0F1" d="M326.4,105.2c0.1-0.3,0.3-0.8,0.6-1.1c0.8-0.8,2.3-0.8,3.1,0c0.4,0.4,0.6,0.9,0.7,1.3
	c0,0.1,0.1,0.3,0.2,0.5c0.1,0.2,0.2,0.3,0.3,0.5c0.2,0.2,0.3,0.5,0.5,0.9c0.3-1.2,0.8-2.8,1.4-4.3c0.5-1.3,1.2-2.7,2.3-3.8
	c0.7-0.7,1.6-1.2,2.3-1.7c0.2-0.1,0.5-0.3,0.7-0.4c0.2-0.2,0.4-0.3,0.6-0.5c0.6-0.4,1.1-0.8,1.9-1.1c1-0.3,2.5-0.4,3.6,0.1
	c0.7,0.4,1,0.9,1.2,1.3c0,0,0,0,0.1,0c0.2,0.1,0.6,0.2,1,0.3c0.1,0.1,0.2,0.1,0.4,0.2c-0.1-0.2-0.2-0.5-0.3-0.8
	c-0.2-0.6-0.3-1.2-0.4-1.8c-0.1-0.4-0.1-0.9-0.2-1.4c-0.2-1-0.7-1.8-1.3-2.4c-0.6-0.6-1.5-1.1-2.4-1.3c-1-0.2-2-0.2-3.3-0.2
	c-1.6,0-3.5,0-4.7-0.8c-0.9-0.6-1.2-1.5-1.4-2.1c-0.1-0.2-0.1-0.4-0.2-0.4c0,0-0.4-0.1-0.7-0.3c-0.4-0.2-0.8-0.3-1.4-0.6l0.6-1.3
	c0,0,0,0,0,0.1c-0.1,0.1-0.1,0.2-0.2,0.2c-0.2,0.2-0.4,0.5-0.5,0.7c-0.1,0.1-0.2,0.2-0.2,0.3c-0.2,0.2-0.3,0.4-0.4,0.7
	c-0.1,0.1-0.1,0.2-0.2,0.3c-0.2,0.3-0.4,0.7-0.5,1c-1.4,3.1-1.4,7-1.7,10c-0.3,3.1-0.8,5.3-1.1,7.2c-0.1,0.4-0.1,0.9-0.1,1.3
	C326.3,105.6,326.4,105.4,326.4,105.2z"/>
<path id="XZ" fill="#ECF0F1" d="M335.1,84.4c0.3,0.4,0.4,0.8,0.6,1.2c0.1,0.3,0.2,0.6,0.4,0.7c0.5,0.3,2.2,0.3,3.1,0.3
	c1.4,0,2.7,0,4,0.3c1.4,0.4,2.8,1.1,3.7,2c1,1,1.7,2.3,2,3.7c0.1,0.6,0.2,1.2,0.3,1.7c0.1,0.5,0.1,1,0.2,1.3c0.1,0.3,0.3,0.6,0.5,1
	c0.2,0.3,0.4,0.5,0.5,0.8c0.4,0.9,0.4,1.6,0.4,2.3c0,0.7,0,1.7-0.7,2.4c-0.8,0.8-2.3,0.8-3.1,0c-0.4-0.4-0.6-0.9-0.7-1.3
	c0-0.1-0.1-0.3-0.2-0.5c-0.1-0.3-0.5-0.6-0.8-0.8c-0.2-0.1-0.3-0.1-0.5-0.2c-0.4-0.1-0.9-0.2-1.3-0.7c-0.3-0.3-0.4-0.6-0.5-0.8
	c0,0,0-0.1,0-0.1c-0.3-0.1-0.9-0.1-1.4,0.1c-0.4,0.1-0.7,0.4-1.2,0.7c-0.2,0.2-0.5,0.4-0.7,0.5c-0.2,0.2-0.5,0.3-0.8,0.5
	c-0.6,0.4-1.3,0.8-1.8,1.3c-0.6,0.6-1.1,1.4-1.6,2.9c-0.6,1.4-1.1,3-1.3,4.1l-0.1,0.4c-0.1,0.6-0.2,1.1-0.5,1.8c0,0,0.1,0,0.1,0
	c0.3,0.1,0.7,0.1,1.1,0.2c0.7,0.1,1.5,0.4,2.3,0.6c0.7,0.2,1.5,0.4,2.1,0.5c0.4,0.1,0.7,0.1,1.1,0.2c1,0.2,1.9,0.3,2.8,0.9
	c0.5,0.4,0.9,0.8,1.4,1.4c0.5,0.6,1.1,1.2,2.1,2.1c1.2,1,3,2.3,4.8,3.6c1,0.7,1.9,1.4,2.7,1.9c1.3,1,2.3,1.8,3.1,2.5
	c0.5,0.4,1,0.8,1.4,1.1c1,0.7,1.9,1.2,2.8,1.4c0.5,0.1,0.9,0.2,1.4,0.2c0.6,0.1,1.2,0.2,1.8,0.3c0.5,0.2,0.8,0.4,1.2,0.6
	c0.5,0.3,1,0.5,1.8,0.8c1.1,0.4,2.7,0.7,4.2,1.1c0.8,0.2,1.6,0.4,2.4,0.6c1.3,0.3,2.5,0.7,3.4,0.9c0.6,0.2,1.2,0.3,1.6,0.5
	c0.5,0.1,0.8,0.2,1.1,0.2c0.5,0.1,0.9,0.2,1.5,0.4c1.3,0.4,2.6,1.3,3.9,2.6c1.5,1.5,3.2,3.8,4.4,5.5c0.3,0.4,0.5,0.8,0.7,1.1
	c0.6,0.9,1,1.6,1.4,1.8c0.3,0.2,0.7,0.3,1,0.4c0.5,0.1,1,0.2,1.4,0.6c0.9,0.9,0.3,2,0.1,2.5c-0.1,0.2-0.2,0.4-0.3,0.6
	c-0.2,0.6-0.2,1.7-0.2,2.9c0,1.3,0,2.9-0.4,4.3c4.1-1.1,5.4-1.8,6.5-2.3c1.4-0.7,2.3-1.1,3.7-2.9c0.9-1.1,2.1-2.6,3.2-4.3
	c0.9-1.2,1.7-2.4,2.6-3.5c1.3-1.6,2.4-2.9,3.4-4c0.6-0.7,1.1-1.3,1.6-1.9c1.4-1.6,2.4-3.2,2.8-4.4c0.4-1.1,0.3-1.6,0-2.1l1.2-0.7
	l-1.2,0.7l-0.1-0.1c-0.6-0.8-2-1.8-3.7-2.7c-0.4-0.2-0.9-0.4-1.4-0.6c-1.3-0.6-2.7-1.2-4.6-2.5c-1.7-1.1-3.7-2.7-5.6-4.2
	c-0.9-0.7-1.8-1.4-2.6-2c-0.6-0.4-1.1-0.8-1.5-1.1c-1.4-1-2.2-1.6-2.6-2.6c-0.3-0.9-0.1-1.8,0.2-2.8c0.1-0.4,0.2-0.9,0.3-1.5
	c0.1-0.8,0.2-1.7,0.3-2.7c0.1-1,0.1-2,0.3-2.9c0.1-0.6,0.2-1.1,0.4-1.6c0.2-0.8,0.3-1.3,0.2-1.7c-0.2-0.6-0.9-1.5-2-2.3
	c-0.9-0.7-1.9-1.2-4.6-2c-0.9-0.3-2-0.6-3.1-0.9c-2.4-0.7-5.2-1.4-7.3-2.2c-2.9-1-4.9-2.2-6.4-3.7c-0.8-0.8-1.4-1.7-1.9-2.4
	c-0.2-0.4-0.5-0.7-0.7-1.1c-0.4-0.6-1-1.2-1.6-1.9c-0.5-0.6-1.1-1.2-1.7-2c-0.3-0.3-0.6-0.7-0.9-1.1c-1.1-1.4-2.4-3-3.7-4
	c-1.2-1-2.5-1.6-4-2.2l-1-0.4c-0.5-0.2-1-0.5-1.6-0.7c-1.5-0.7-3-1.4-4.4-1.7c-1-0.3-1.9-0.4-2.8-0.5c-0.8-0.1-1.6-0.2-2.4-0.4
	c-0.3-0.1-0.7-0.2-1-0.3c-0.7-0.2-1.5-0.5-2.7-0.6l0.2-1.3c-0.4,0.5-0.8,1.1-1.2,1.6c-2.2,3.1-4.5,6.4-7,9.2
	c-1.2,1.3-2.4,2.5-3.5,3.7c0.4,0.2,0.7,0.3,0.9,0.4C334.1,83.6,334.7,83.8,335.1,84.4z"/>
<path id="TY" fill="#ECF0F1" d="M348.1,67.9c0.7,0.2,1.4,0.3,2.1,0.4c1,0.1,2,0.3,3.2,0.6c1.5,0.4,3.2,1.2,4.7,1.9
	c0.5,0.2,1,0.5,1.6,0.7l0.9,0.4c1.6,0.7,3.2,1.3,4.7,2.6c1.4,1.2,2.8,2.9,4,4.4c0.3,0.4,0.6,0.7,0.9,1.1c0.6,0.7,1.1,1.3,1.6,1.9
	c0.7,0.7,1.2,1.4,1.7,2.1c0.3,0.4,0.6,0.8,0.8,1.2c0.5,0.7,0.9,1.4,1.6,2c1.2,1.2,2.9,2.1,5.3,3c2,0.7,4.7,1.5,7.1,2.1
	c1.2,0.3,2.2,0.6,3.2,0.9c2.8,0.8,4.1,1.4,5.4,2.4c1.2,0.9,2.6,2.2,3,3.8c0.3,1.1,0,2-0.2,3.1c-0.1,0.4-0.2,0.9-0.3,1.4
	c-0.1,0.8-0.2,1.7-0.3,2.7c-0.1,1-0.1,2-0.3,2.9c-0.1,0.6-0.2,1.2-0.4,1.7c-0.1,0.5-0.3,1.1-0.2,1.3c0.1,0.2,0.9,0.8,1.5,1.2
	c0.5,0.3,1,0.7,1.6,1.2c0.8,0.6,1.7,1.3,2.6,2c1.8,1.4,3.8,3,5.4,4c1.7,1.1,3,1.7,4.3,2.3c0.5,0.2,1,0.4,1.4,0.7c0.8,0.4,2,1,3,1.9
	c0.1-0.4,0.1-0.9,0.2-1.3c0-0.4,0.1-0.7,0.1-1c0.3-2.4,1-4.3,2.6-6.8c0.5-0.8,1.1-1.8,1.8-2.8c0.6-1,1.3-2,1.9-3c0,0,0,0-0.1-0.1
	c-1.3-1.3-3-4.2-4.2-6.5c-1.2-2.3-1.7-4-2.3-5.7c-0.6-1.7-1.2-3.5-1.5-5.9c-0.1-1.1-0.2-2.3-0.3-3.5c-0.1-1.2-0.1-2.4-0.3-3.2
	c-0.1-0.3-0.1-0.6-0.2-0.7c-0.1,0.1-0.3,0.1-0.4,0.2c-0.8,0.5-1.9,1.1-3.5,1.4c-2.4,0.3-5.6-0.4-7-0.9c-1.8-0.6-2.9-1.3-3.4-3.2
	c-0.1-0.5-0.2-1.1-0.3-1.7c-0.1-0.8-0.2-1.8-0.5-2.7c-0.4-1.3-1.3-2.7-2.6-4.3c-0.2-0.2-0.4-0.5-0.6-0.7c-1-1.2-1.9-2.3-2.2-3.8
	c-0.3-1.5,0.1-3.1,0.4-4.3l0.1-0.5c0.1-0.2,0.1-0.4,0.1-0.6c0.2-0.8,0.4-1.8,1.4-2.3c0.5-0.3,1.1-0.3,1.8-0.4
	c0.4-0.1,0.8-0.1,1.3-0.2c0.8-0.2,1.8-0.6,2.6-1.2c0.7-0.5,1.2-1,1.7-1.5c0.5-0.5,1-1,1.4-1.9c0.5-1,1-2.6,1.3-3.8
	c0.3-1.3,0.3-2.3,0.3-3.4c0-1.1,0-1.8-0.6-2.5c-0.5-0.7-1.5-1.5-2.5-2.2c-0.4-0.3-0.8-0.6-1.1-0.9c-0.4-0.3-0.8-0.7-1.2-1
	c-0.8-0.7-1.5-1.3-2.2-1.6c-0.5-0.3-1.2-0.4-2-0.5c-0.5-0.1-1.1-0.2-1.7-0.3c-1-0.2-2.1-0.5-4.7-1.3l0.4-1.3
	c-0.4,0.1-0.9,0.2-1.4,0.3c-3.9,0.8-9.5,1.9-12.5,3.1s-3.6,2.2-6.4,4.5c-2.8,2.2-7.8,5.6-10.9,7.5c-3.1,2-4.2,2.5-5.8,3.6
	c-1.7,1.1-3.9,2.8-6.1,5c-1.5,1.5-3,3.3-4.5,5.2c0.9,0.2,1.7,0.4,2.3,0.6C347.6,67.8,347.8,67.8,348.1,67.9z"/>
<path id="KL" fill="#ECF0F1" d="M461.2,31.2c-0.8,0-1.9,0-2.8,0c-0.8,0-1.4,0-1.9,0.8c-0.6,0.8-1.1,2.5-1.4,3.6
	c-0.3,1.1-0.3,1.7,0,2c0.3,0.3,0.8,0.3,1.4,0.8c0.6,0.6,1.1,1.7,2.2,3.1c1.1,1.4,2.8,3.1,3.9,4.5c1.1,1.4,1.7,2.5,2.5,3.1
	c0.8,0.6,1.9,0.6,3.6,0.8c1.7,0.3,3.9,0.8,5.6,1.1c1.7,0.3,2.8,0.3,3.6,0c0.8-0.3,1.4-0.8,2-1.4c0.6-0.6,1.1-1.1,1.4-1.7
	c0.3-0.6,0.3-1.1,0.3-1.7s0-1.1-0.3-1.4c-0.3-0.3-0.8-0.3-1.4-0.6c-0.6-0.3-1.1-0.8-1.7-1.7c-0.6-0.8-1.1-1.9-1.4-2.8
	c-0.3-0.8-0.3-1.4,0.3-1.9c0.6-0.6,1.7-1.1,3.1-1.4c1.4-0.3,3.1-0.3,3.9-0.7c0.6-0.3,0.7-0.7,1.8-1.5c-0.1,0-0.1,0-0.2-0.1
	c-0.6-0.2-1.2-0.4-1.8-0.6c-0.1,0-0.2-0.1-0.3-0.1c-0.6-0.2-1.2-0.4-1.8-0.7c-1.4-0.6-2.5-1.1-4.2-1.4c-1.7-0.3-3.9-0.3-5.8-0.6
	c-1.9-0.3-3.6-0.8-4.7-1.7c-0.3-0.2-0.5-0.4-0.7-0.6c0,0,0,0,0,0c-0.2-0.2-0.4-0.5-0.6-0.7c-0.2-0.2-0.4-0.5-0.6-0.7
	c0-0.1-0.1-0.1-0.1-0.2c-0.2-0.3-0.5-0.5-0.8-0.8c0,0,0-0.1-0.1-0.1c0,0,0,0,0,0c-0.9,2.3-1,3.5-1.2,4.2
	C462.6,31.2,462,31.2,461.2,31.2z"/>
<path id="NTP" fill="#ECF0F1" d="M514.6,52.7c-0.3-0.8-0.8-1.9-2-2.8c-1.1-0.8-2.8-1.4-4.2-1.7s-2.5-0.3-3.3-1.4s-1.4-3.3-2.5-5.3
	c-1.1-1.9-2.8-3.6-4.7-4.5c-1.9-0.8-4.2-0.8-6.1-1.1c-1.9-0.3-3.6-0.8-5.3-1.4c-0.3-0.1-0.6-0.2-0.9-0.3c0.1,0,0.1,0,0.2,0.1
	c-1,0.8-1.2,1.2-1.8,1.5c-0.8,0.4-2.5,0.4-3.9,0.7c-1.4,0.3-2.5,0.8-3.1,1.4c-0.6,0.6-0.6,1.1-0.3,1.9c0.3,0.8,0.8,1.9,1.4,2.8
	c0.6,0.8,1.1,1.4,1.7,1.7c0.6,0.3,1.1,0.3,1.4,0.6c0.3,0.3,0.3,0.8,0.3,1.4s0,1.1-0.3,1.7c-0.3,0.6-0.8,1.1-1.4,1.7
	c-0.6,0.6-1.1,1.1-2,1.4c-0.8,0.3-1.9,0.3-3.6,0c-1.7-0.3-3.9-0.8-5.6-1.1c-1.7-0.3-2.8-0.3-3.6-0.8c-0.8-0.6-1.4-1.7-2.5-3.1
	c-1.1-1.4-2.8-3.1-3.9-4.5c-1.1-1.4-1.7-2.5-2.2-3.1c-0.6-0.6-1.1-0.6-1.4-0.8c-0.3-0.3-0.3-0.8,0-2c0.3-1.1,0.8-2.8,1.4-3.6
	c0.6-0.8,1.1-0.8,1.9-0.8c0.8,0,2,0,2.8,0c0.8,0,1.4,0,1.7-0.8c0.2-0.7,0.3-1.9,1.2-4.2c-0.1-0.1-0.2-0.1-0.2-0.2
	c-1.5-1.4-4-3.1-5.7-6.4c-8.4-1.7-8.4-2.5-8.9-4.3c-0.6-1.8-1.7-4.6-3.1-6.5c-1.4-1.9-3.1-3.1-5.3-3.3c-2.2-0.3-5,0.3-8.1,2
	s-6.4,4.5-9.5,6.7c-3.1,2.2-5.8,3.9-7.5,5.8c-1.7,1.9-2.2,4.2-2.8,5.8c-0.6,1.7-1.1,2.8-1.7,3.6c-0.6,0.8-1.1,1.4-3.1,2.5
	c-2,1.1-5.3,2.8-8.1,3.9c-0.3,0.1-0.6,0.3-1,0.4c-0.1,0-0.2,0.1-0.3,0.1c-0.2,0.1-0.4,0.2-0.6,0.2c-0.1,0-0.2,0.1-0.4,0.1
	c-0.2,0.1-0.4,0.1-0.6,0.2c-0.1,0-0.3,0.1-0.4,0.1c-0.2,0.1-0.4,0.1-0.6,0.2c-0.1,0-0.3,0.1-0.4,0.1c-0.2,0-0.4,0.1-0.6,0.1
	c1,0.3,1.6,0.5,2.2,0.6c0.6,0.1,1.1,0.2,1.6,0.3c1,0.2,1.8,0.3,2.8,0.8c0.9,0.5,1.8,1.2,2.7,2c0.4,0.3,0.7,0.6,1.1,1
	c0.3,0.3,0.7,0.5,1.1,0.8c1.2,0.9,2.3,1.8,3.1,2.8c1.1,1.5,1.1,3,1.1,4.2c0,1.2,0,2.4-0.3,3.9c-0.3,1.5-0.9,3.3-1.5,4.5
	c-0.7,1.3-1.3,2-1.9,2.6c-0.6,0.6-1.2,1.2-2.2,1.8c-0.6,0.4-1.9,1.2-3.5,1.6c-0.5,0.1-1.1,0.2-1.6,0.3c-0.3,0-0.6,0.1-0.8,0.1
	c0,0.1-0.1,0.3-0.1,0.5c0,0.2-0.1,0.4-0.1,0.6l-0.1,0.5c-0.3,1-0.6,2.2-0.4,3c0.2,0.8,0.8,1.6,1.6,2.6c0.2,0.2,0.4,0.5,0.6,0.7
	c1.5,1.8,2.5,3.6,3,5.2c0.4,1.2,0.5,2.3,0.7,3.2c0.1,0.5,0.1,1,0.2,1.3c0.1,0.5,0.2,0.8,1.6,1.3c1.7,0.6,4.2,1,5.8,0.8
	c1-0.1,1.8-0.6,2.4-1c0.4-0.2,0.8-0.5,1.2-0.6c0.9-0.3,1.6-0.1,2,0.2c1,0.6,1.4,1.9,1.5,2.9c0.2,0.9,0.2,2.2,0.3,3.4
	c0.1,1.1,0.1,2.3,0.3,3.3c0.3,2.1,0.8,3.7,1.3,5.3c0.6,1.7,1.1,3.3,2.2,5.4c1.2,2.4,2.8,4.9,3.6,5.8c0.2,0.2,0.2,0.2,0.2,0.2
	c0.2,0,0.6-0.2,1-0.4c0.3-0.1,0.5-0.2,0.9-0.4c1.1-0.5,2.5-1,4.1-1.6c1.3-0.5,2.8-1,4-1.5c2.7-1.1,4.9-2.2,6.6-3
	c1.8-0.9,2.2-1.2,2.3-2.1c0.1-0.9,0-2.3-0.1-3.5c-0.1-0.9-0.2-1.7-0.2-2.4c0-2.5,1.3-3.4,5.7-6.2c1.7-1,3.9-2.4,6.2-3.8
	c3.9-2.4,8.3-5.1,11.3-7c4.8-3.1,5.6-4.1,6.3-5.1c0.3-0.5,0.6-1,0.8-1.5c0.6-1.1,1-2,1.7-2.4c1.1-0.5,2,0.2,2.4,0.5
	c0.3,0.2,0.5,0.4,0.8,0.5c0.6,0.1,1.8-0.2,2.7-0.9c0.9-0.6,1.3-1.5,1.8-2.6c0.6-1.2,1.3-2.5,3.5-4.1c2-1.5,5.5-3.2,7.7-4.3
	c2.3-1.1,3.5-1.8,5.6-2.1c1.2-0.2,3-0.3,6.4,0.3l-0.2,1.4c0,0,0,0,0,0c1.1-0.6,2.2-0.6,3.3-0.8c1.1-0.3,2.2-0.8,2.8-1.4
	C514.9,54.1,514.9,53.5,514.6,52.7z M456.1,54.1c-0.3,0-0.8-0.6-1.7-0.8c-0.8-0.3-2-0.3-2.8-0.3c-0.8,0-1.4,0-1.7,0.3
	c-0.3,0.3-0.3,0.8-0.6,1.1c-0.3,0.3-0.8,0.3-1.4,0.8c-0.6,0.6-1.1,1.7-1.4,2.5c-0.3,0.8-0.3,1.4-0.3,1.9c0,0.6,0,1.1,0.7,1.3
	c0.7,0.2,2.1,0.1,2.9,0.1c0.8,0,1.1,0.1,1,0.8c-0.1,0.6-0.7,1.7-1.1,2.2c-0.4,0.4-0.7,0.1-1.5,0.1c-0.8,0-2.2,0.3-3.5-0.1
	c-1.3-0.4-2.4-1.5-3.6-2.2c-1.3-0.7-2.6-1-3.2-1.3c-0.6-0.3-0.3-0.6-0.4-1c-0.1-0.4-0.7-1-1-1.8c-0.3-0.8-0.5-1.9-0.8-2.5
	c-0.3-0.6-0.7-0.6-1-0.8c-0.3-0.2-0.4-0.6-0.7-0.9c-0.3-0.3-0.7-0.4-1.3-0.2c-0.6,0.2-1.3,0.8-1.9,1c-0.6,0.3-1.2,0.3-1.6,0.3
	c-0.4,0.1-0.7,0.2-0.9-0.6c-0.2-0.8-0.3-2.6,0.2-4.5c0.6-1.8,1.8-3.6,2.4-4.7c0.6-1,0.6-1.3,0.1-2.1c-0.5-0.8-1.5-2-2.1-2.6
	c-0.6-0.6-0.9-0.4-1.9-0.7c-1-0.3-2.6-1-3.5-1.5c-0.8-0.6-0.8-1-0.6-1.5c0.3-0.6,0.8-1.3,1.1-2.2c0.3-0.9,0.3-2,1.1-3.2
	c0.8-1.2,2.5-2.4,3.9-3.1c1.4-0.6,2.5-0.6,3.2-0.6c0.7,0.1,1,0.2,1.2-0.3c0.2-0.6,0.3-1.8,0.5-2.6c0.1-0.8,0.3-1.3,0.9-1.5
	c0.6-0.3,1.7-0.4,2.3-0.7c0.6-0.3,0.6-0.7,1.1-0.9c0.6-0.2,1.7-0.2,2.4-0.1c0.8,0.1,1.2,0.4,1.7,1c0.6,0.6,1.3,1.4,1.6,2.4
	c0.3,1,0.3,2.1,0.9,3c0.6,0.9,1.7,1.6,2.5,2.2c0.8,0.6,1.4,1,1.4,1.7s-0.6,1.9-0.8,2.7c-0.3,0.8-0.3,1.4,0.3,1.9
	c0.6,0.6,1.7,1.1,1.9,1.4c0.3,0.3-0.3,0.3-0.6,1.1c-0.3,0.8-0.3,2.5,0,3.9c0.3,1.4,0.8,2.5,1.1,3.3c0.3,0.8,0.3,1.4,0.6,2
	c0.3,0.6,0.8,1.1,1.7,1.7c0.8,0.6,1.9,1.1,2.5,1.7c0.6,0.6,0.6,1.1,0.6,1.7C456.4,53.5,456.4,54.1,456.1,54.1z"/>
<path id="TPE" fill="#18BC9C" d="M453.4,49.6c-0.8-0.6-1.4-1.1-1.7-1.7c-0.3-0.6-0.3-1.1-0.6-2c-0.3-0.8-0.8-1.9-1.1-3.3
	c-0.3-1.4-0.3-3.1,0-3.9c0.3-0.8,0.8-0.8,0.6-1.1c-0.3-0.3-1.4-0.8-1.9-1.4c-0.6-0.6-0.6-1.1-0.3-1.9c0.3-0.8,0.8-1.9,0.8-2.7
	s-0.6-1.2-1.4-1.7c-0.8-0.6-1.9-1.3-2.5-2.2c-0.6-0.9-0.6-2-0.9-3c-0.3-1-1-1.8-1.6-2.4c-0.6-0.6-1-0.8-1.7-1
	c-0.8-0.1-1.9-0.1-2.4,0.1c-0.6,0.2-0.6,0.6-1.1,0.9c-0.6,0.3-1.7,0.4-2.3,0.7c-0.6,0.3-0.8,0.7-0.9,1.5c-0.1,0.8-0.3,2.1-0.5,2.6
	c-0.2,0.6-0.5,0.4-1.2,0.3c-0.7-0.1-1.8-0.1-3.2,0.6c-1.4,0.6-3.1,1.9-3.9,3.1c-0.8,1.2-0.8,2.3-1.1,3.2c-0.3,0.9-0.8,1.6-1.1,2.2
	c-0.3,0.6-0.3,1,0.6,1.5c0.8,0.6,2.5,1.3,3.5,1.5c1,0.3,1.3,0.1,1.9,0.7c0.6,0.6,1.6,1.8,2.1,2.6c0.5,0.8,0.5,1-0.1,2.1
	c-0.6,1-1.9,2.9-2.4,4.7c-0.6,1.8-0.4,3.6-0.2,4.5c0.2,0.8,0.5,0.7,0.9,0.6c0.4-0.1,1-0.1,1.6-0.3c0.6-0.3,1.3-0.8,1.9-1
	c0.6-0.2,1-0.1,1.3,0.2c0.3,0.3,0.4,0.7,0.7,0.9c0.3,0.2,0.7,0.2,1,0.8c0.3,0.6,0.4,1.7,0.8,2.5c0.3,0.8,0.9,1.4,1,1.8
	c0.1,0.4-0.1,0.7,0.4,1c0.6,0.3,1.9,0.6,3.2,1.3c1.3,0.7,2.4,1.8,3.6,2.2c1.3,0.4,2.6,0.1,3.5,0.1c0.8,0,1.1,0.3,1.5-0.1
	c0.4-0.4,1-1.5,1.1-2.2c0.1-0.6-0.1-0.8-1-0.8c-0.8,0-2.2,0.1-2.9-0.1c-0.7-0.2-0.7-0.8-0.7-1.3c0-0.6,0-1.1,0.3-1.9
	c0.3-0.8,0.8-1.9,1.4-2.5c0.6-0.6,1.1-0.6,1.4-0.8c0.3-0.3,0.3-0.8,0.6-1.1c0.3-0.3,0.8-0.3,1.7-0.3c0.8,0,1.9,0,2.8,0.3
	c0.8,0.3,1.4,0.8,1.7,0.8s0.3-0.6,0.3-1.1c0-0.6,0-1.1-0.6-1.7C455.3,50.7,454.2,50.2,453.4,49.6z"/>
</svg>
